<?xml version="1.0" encoding="utf-8"?>
<!-- Generator: Adobe Illustrator 16.0.0, SVG Export Plug-In . SVG Version: 6.00 Build 0)  -->
<!DOCTYPE svg PUBLIC "-//W3C//DTD SVG 1.1//EN" "http://www.w3.org/Graphics/SVG/1.1/DTD/svg11.dtd">
<svg version="1.1" id="Layer_1" xmlns="http://www.w3.org/2000/svg" xmlns:xlink="http://www.w3.org/1999/xlink" x="0px" y="0px"
	 width="270px" height="187.5px" viewBox="0 0 270 187.5" enable-background="new 0 0 270 187.5" xml:space="preserve">
<g>
	<g>
		<g>
			<path fill="#21283C" d="M19.351,25.859v136.463c79.439,28.061,152.65-28.055,232.094,0V25.859
				c-79.443-28.056-152.654,28.067-231.09,0H19.351z"/>
		</g>
	</g>
</g>
<g>
	<g>
		<g>
			<g>
				<path fill="#EE2148" d="M184.525,96.359l-63.298-36.545v73.092L184.525,96.359z"/>
			</g>
		</g>
		<g>
			<polygon fill="#EE2148" points="97.858,116.184 99.751,122 105.866,122 100.917,126.456 102.808,132.703 97.858,129.319 
				92.911,133.027 94.802,126.401 89.853,122 95.968,122 			"/>
		</g>
		<g>
			<polygon fill="#EE2148" points="97.858,59.184 99.751,65 105.866,65 100.917,69.456 102.808,75.703 97.858,72.319 92.911,76.027 
				94.802,69.401 89.853,65 95.968,65 			"/>
		</g>
		<g>
			<polygon fill="#EE2148" points="97.858,87.184 99.751,93 105.866,93 100.917,97.456 102.808,103.703 97.858,100.319 
				92.911,104.027 94.802,97.401 89.853,93 95.968,93 			"/>
		</g>
	</g>
</g>
</svg>
