<?xml version="1.0" encoding="utf-8"?>
<!-- Generator: Adobe Illustrator 16.0.0, SVG Export Plug-In . SVG Version: 6.00 Build 0)  -->
<!DOCTYPE svg PUBLIC "-//W3C//DTD SVG 1.1//EN" "http://www.w3.org/Graphics/SVG/1.1/DTD/svg11.dtd">
<svg version="1.1" id="Layer_1" xmlns="http://www.w3.org/2000/svg" xmlns:xlink="http://www.w3.org/1999/xlink" x="0px" y="0px"
	 width="270px" height="298px" viewBox="0 0 270 298" enable-background="new 0 0 270 298" xml:space="preserve">
<g>
	<g>
		<g>
			<path fill="#21283C" d="M19.351,25.859v136.463c79.439,28.061,152.65-28.055,232.094,0V25.859
				c-79.443-28.056-152.654,28.067-231.09,0H19.351z"/>
		</g>
	</g>
</g>
<g>
	<g>
		<g>
			<g>
				<path fill="#EE2148" d="M121.228,59.814 M184.526,96.359l-63.299-36.545v73.092L184.526,96.359z"/>
			</g>
		</g>
		<g>
			<polygon fill="#EE2148" points="97.858,116.184 99.751,122 105.866,122 100.917,126.456 102.808,132.703 97.858,129.319 
				92.911,133.027 94.802,126.401 89.853,122 95.968,122 			"/>
		</g>
		<g>
			<polygon fill="#EE2148" points="97.858,59.184 99.751,65 105.866,65 100.917,69.456 102.808,75.703 97.858,72.319 92.911,76.027 
				94.802,69.401 89.853,65 95.968,65 			"/>
		</g>
		<g>
			<polygon fill="#EE2148" points="97.858,87.184 99.751,93 105.866,93 100.917,97.456 102.808,103.703 97.858,100.319 
				92.911,104.027 94.802,97.401 89.853,93 95.968,93 			"/>
		</g>
	</g>
</g>
<g>
	<path fill="#21283C" d="M30.344,249.617c0,0.088-0.009,0.166-0.026,0.236c-0.016,0.068-0.037,0.141-0.066,0.207
		c-0.024,0.072-0.082,0.15-0.168,0.236l-1.49,1.49l-0.08,0.055l2.67,6.563c0.032,0.086,0.002,0.17-0.091,0.25
		c-0.099,0.078-0.19,0.117-0.274,0.117h-3.505c-0.105,0-0.202-0.039-0.288-0.117c-0.087-0.08-0.15-0.164-0.185-0.25l-2.561-6.355
		h-1.205v6.355c0,0.086-0.032,0.17-0.106,0.25c-0.068,0.078-0.155,0.117-0.259,0.117h-3.112c-0.088,0-0.171-0.039-0.248-0.117
		c-0.08-0.08-0.117-0.164-0.117-0.25v-17.547c0-0.104,0.037-0.189,0.117-0.262c0.077-0.068,0.16-0.104,0.248-0.104h8.317
		c0.067,0,0.139,0.008,0.208,0.025c0.07,0.018,0.145,0.039,0.223,0.064c0.077,0.027,0.16,0.086,0.248,0.172l1.49,1.49
		c0.086,0.086,0.144,0.174,0.168,0.26c0.029,0.09,0.051,0.166,0.066,0.236c0.018,0.088,0.026,0.168,0.026,0.236V249.617z
		 M23.074,248.23h2.747c0.066,0,0.131-0.025,0.182-0.078l0.42-0.418c0.054-0.053,0.078-0.096,0.078-0.131v-0.078v-2.459v-0.049
		c0-0.055-0.024-0.105-0.078-0.16l-0.42-0.42c-0.051-0.049-0.105-0.074-0.155-0.074h-0.054h-2.72V248.23z"/>
	<path fill="#21283C" d="M55.448,247.709h4.629c0.242,0,0.365,0.123,0.365,0.365v3.113c0,0.244-0.123,0.367-0.365,0.367h-4.629
		v3.371h6.039c0.089,0,0.172,0.035,0.248,0.105c0.081,0.07,0.117,0.158,0.117,0.262v3.111c0,0.104-0.036,0.191-0.117,0.26
		c-0.076,0.072-0.159,0.107-0.248,0.107H51.97c-0.246,0-0.365-0.121-0.365-0.367v-17.547c0-0.244,0.119-0.365,0.365-0.365h9.518
		c0.089,0,0.172,0.035,0.248,0.104c0.081,0.072,0.117,0.158,0.117,0.262v3.111c0,0.104-0.036,0.193-0.117,0.262
		c-0.076,0.07-0.159,0.104-0.248,0.104h-6.039V247.709z"/>
	<path fill="#21283C" d="M93.799,249.592l-0.024,0.027h0.024c0,0.086-0.008,0.164-0.024,0.234c-0.035,0.156-0.121,0.305-0.262,0.443
		l-1.465,1.492c-0.141,0.139-0.297,0.227-0.471,0.26c-0.07,0.02-0.139,0.02-0.208,0h-4.841v6.355c0,0.088-0.038,0.17-0.117,0.25
		c-0.078,0.078-0.168,0.117-0.274,0.117h-3.085c-0.104,0-0.19-0.039-0.262-0.117c-0.068-0.08-0.104-0.162-0.104-0.25v-17.547
		c0-0.242,0.121-0.365,0.365-0.365h8.317c0.069,0,0.138,0.008,0.208,0.025s0.144,0.037,0.223,0.064
		c0.076,0.027,0.159,0.086,0.248,0.172l1.465,1.49c0.141,0.139,0.227,0.295,0.262,0.471c0.017,0.068,0.024,0.141,0.024,0.209
		V249.592z M86.528,248.205h2.695h0.055c0.049,0,0.104-0.023,0.153-0.078l0.446-0.414c0.016-0.035,0.036-0.057,0.051-0.066
		c0.018-0.008,0.027-0.029,0.027-0.064v-0.078v-2.441v-0.051c0-0.018-0.01-0.035-0.027-0.055c-0.015-0.016-0.035-0.041-0.051-0.076
		l-0.446-0.443c-0.032-0.014-0.063-0.031-0.091-0.049c-0.026-0.018-0.048-0.027-0.063-0.027h-0.055h-2.695V248.205z"/>
	<path fill="#21283C" d="M125.575,256.338c0,0.088-0.008,0.166-0.025,0.236c-0.017,0.07-0.04,0.139-0.064,0.209
		c-0.027,0.068-0.083,0.148-0.172,0.234l-1.467,1.465c-0.138,0.141-0.297,0.227-0.471,0.264c-0.07,0.016-0.141,0.025-0.211,0.025
		l-6.789-0.025c-0.087,0.016-0.166,0.016-0.234,0c-0.156-0.037-0.307-0.123-0.447-0.264l-1.468-1.465
		c-0.139-0.139-0.226-0.287-0.262-0.443c-0.017-0.07-0.024-0.148-0.024-0.236h0.024c0-0.018-0.004-0.025-0.004-0.025
		c-0.017,0-0.021-0.01-0.021-0.025v-15.43c0-0.104,0.038-0.189,0.115-0.262c0.078-0.068,0.163-0.104,0.25-0.104h3.111
		c0.244,0,0.367,0.121,0.367,0.365v13.496c0,0.051,0.025,0.111,0.077,0.18l0.367,0.367h3.033l0.367-0.367
		c0.034-0.031,0.054-0.068,0.063-0.104c0.008-0.031,0.023-0.061,0.041-0.076v-13.496c0-0.244,0.121-0.365,0.369-0.365h3.105
		c0.244,0,0.367,0.121,0.367,0.365V256.338z"/>
	<path fill="#21283C" d="M156.829,248.129c0,0.086-0.008,0.164-0.025,0.232c-0.036,0.16-0.123,0.309-0.261,0.447l-1.021,1.045
		l1.021,1.021c0.088,0.086,0.146,0.168,0.183,0.246c0.034,0.078,0.06,0.152,0.078,0.225h0.025v4.994
		c0,0.086-0.008,0.164-0.025,0.236c-0.036,0.152-0.123,0.303-0.261,0.441l-1.465,1.467c-0.141,0.139-0.298,0.225-0.474,0.26
		c-0.066,0.02-0.136,0.027-0.207,0.027h-8.317c-0.242,0-0.365-0.121-0.365-0.365v-17.549c0-0.242,0.123-0.367,0.365-0.367h8.317
		c0.071,0,0.141,0.012,0.207,0.029c0.176,0.031,0.333,0.121,0.474,0.262l1.465,1.463c0.138,0.139,0.225,0.295,0.261,0.471
		c0.018,0.068,0.025,0.141,0.025,0.209V248.129z M149.561,244.334v3.377h2.979l0.367-0.367c0.051-0.07,0.079-0.133,0.079-0.184
		v-2.117v-0.053c0-0.02-0.012-0.035-0.028-0.055c-0.016-0.016-0.033-0.041-0.051-0.076l-0.443-0.443
		c-0.037-0.055-0.089-0.082-0.158-0.082H149.561z M149.561,254.926h2.979l0.367-0.365c0.051-0.068,0.079-0.131,0.079-0.184v-2.119
		v-0.051c0-0.018-0.012-0.035-0.028-0.053c-0.016-0.018-0.033-0.043-0.051-0.078l-0.443-0.445c-0.054-0.051-0.104-0.078-0.158-0.078
		h-2.745V254.926z"/>
	<path fill="#21283C" d="M188.292,255.006c0.081,0.078,0.117,0.16,0.117,0.246v3.113c0,0.104-0.036,0.191-0.117,0.264
		c-0.079,0.066-0.169,0.104-0.274,0.104h-10.459c-0.106,0-0.198-0.037-0.275-0.104c-0.078-0.072-0.119-0.16-0.119-0.264v-17.549
		h0.027c0.036-0.189,0.157-0.285,0.367-0.285h3.085c0.209,0,0.33,0.096,0.367,0.285v14.07h7.007
		C188.123,254.887,188.213,254.926,188.292,255.006z"/>
	<path fill="#21283C" d="M216.224,240.896v17.469c0,0.244-0.121,0.367-0.365,0.367h-3.111c-0.246,0-0.367-0.123-0.367-0.367v-17.469
		c0-0.242,0.121-0.365,0.367-0.365h3.111C216.103,240.531,216.224,240.654,216.224,240.896z"/>
	<path fill="#21283C" d="M240.012,242.924c0-0.086,0.01-0.166,0.025-0.236c0.034-0.174,0.113-0.322,0.236-0.443l1.463-1.465
		c0.177-0.156,0.322-0.244,0.445-0.262c0.069-0.018,0.148-0.025,0.234-0.025h6.774c0.087,0,0.165,0.008,0.234,0.025
		c0.123,0.018,0.27,0.105,0.444,0.262l1.467,1.465c0.138,0.139,0.225,0.295,0.259,0.471c0.016,0.068,0.027,0.141,0.027,0.209h-0.027
		l0.027,0.053v2.746c0,0.086-0.04,0.17-0.119,0.246c-0.077,0.08-0.159,0.119-0.246,0.119h-3.114c-0.104,0-0.19-0.039-0.261-0.117
		c-0.069-0.076-0.104-0.158-0.104-0.244v-0.67v-0.051c0-0.018-0.01-0.035-0.024-0.053c-0.018-0.018-0.035-0.041-0.054-0.076
		l-0.442-0.439c-0.05-0.051-0.111-0.076-0.181-0.076h-2.521c-0.052,0-0.113,0.027-0.181,0.076l-0.417,0.445
		c-0.069,0.068-0.104,0.113-0.104,0.129c-0.018,0.02-0.018,0.033,0,0.051v9.293c0.018,0.033,0.03,0.063,0.04,0.088
		c0.008,0.027,0.031,0.059,0.063,0.092l0.365,0.363h3.014l0.362-0.354c0.054-0.051,0.078-0.109,0.078-0.176v-0.762
		c0-0.084,0.035-0.166,0.104-0.24c0.07-0.076,0.157-0.115,0.261-0.115h3.114c0.087,0,0.169,0.041,0.246,0.117
		c0.079,0.078,0.119,0.162,0.119,0.248v2.941c-0.02,0.068-0.034,0.131-0.052,0.18c-0.018,0.055-0.097,0.15-0.234,0.289l-1.467,1.457
		c-0.139,0.139-0.288,0.225-0.444,0.262c-0.069,0.016-0.147,0.025-0.234,0.025h-6.774c-0.086,0-0.165-0.01-0.234-0.025
		c-0.175-0.037-0.322-0.123-0.445-0.264l-1.463-1.465c-0.123-0.121-0.202-0.27-0.236-0.443c-0.016-0.07-0.025-0.148-0.025-0.234
		V242.924z"/>
</g>
<g>
	<g>
		<g>
			<g>
				<path fill="#EE2148" d="M38.021,194.883c1.815,6.104,3.615,12.189,5.396,18.256c1.778,6.068,3.578,12.156,5.396,18.258
					c0.073,0.182,0.007,0.352-0.192,0.518c-0.198,0.164-0.408,0.244-0.625,0.244H41.78c-0.216,0-0.418-0.08-0.598-0.244
					c-0.184-0.166-0.311-0.336-0.381-0.518l-1.311-4.416H28.536l-1.307,4.416c-0.072,0.182-0.2,0.352-0.381,0.518
					c-0.184,0.164-0.381,0.244-0.6,0.244h-6.213c-0.218,0-0.428-0.08-0.627-0.244c-0.2-0.166-0.264-0.336-0.191-0.518l10.792-36.514
					v-0.059c0.218-0.506,0.472-0.76,0.761-0.76h2.4h1.688h2.399c0.326,0,0.579,0.254,0.762,0.76V194.883z M37.312,219.625
					l-3.27-11.174l-3.324,11.174H37.312z"/>
			</g>
		</g>
		<g>
			<g>
				<path fill="#EE2148" d="M77.995,194.824v36.57c0,0.184-0.074,0.354-0.219,0.52c-0.145,0.162-0.328,0.244-0.545,0.244H68.62
					c-0.217,0-0.419-0.082-0.6-0.244c-0.184-0.166-0.311-0.336-0.381-0.52l-6.649-18.201v18.201c0,0.184-0.081,0.354-0.247,0.52
					c-0.162,0.162-0.334,0.244-0.517,0.244h-6.483c-0.22,0-0.402-0.082-0.547-0.244c-0.146-0.166-0.219-0.336-0.219-0.52v-36.57
					c0-0.506,0.256-0.762,0.766-0.762h8.119c0.398,0,0.654,0.256,0.762,0.762h0.057l7.193,21.037l0.107,0.602v-21.639
					c0-0.219,0.085-0.396,0.246-0.543c0.164-0.145,0.335-0.219,0.52-0.219h6.484C77.739,194.063,77.995,194.318,77.995,194.824z"/>
			</g>
		</g>
		<g>
			<g>
				<path fill="#EE2148" d="M90.419,194.99v36.406c0,0.51-0.256,0.762-0.764,0.762h-6.484c-0.51,0-0.764-0.252-0.764-0.762V194.99
					c0-0.51,0.254-0.762,0.764-0.762h6.484C90.163,194.229,90.419,194.48,90.419,194.99z"/>
			</g>
		</g>
		<g>
			<g>
				<path fill="#EE2148" d="M126.007,231.342c0,0.51-0.252,0.762-0.762,0.762h-6.431c-0.22,0-0.409-0.072-0.573-0.215
					c-0.163-0.146-0.246-0.33-0.246-0.547l-0.215-13.789l-4.197,13.898c-0.074,0.184-0.203,0.354-0.384,0.518
					s-0.382,0.244-0.598,0.244h-4.359c-0.22,0-0.421-0.08-0.602-0.244s-0.327-0.334-0.437-0.518l-4.141-13.898l-0.272,13.789
					c0,0.51-0.257,0.762-0.764,0.762h-6.484c-0.185,0-0.355-0.072-0.519-0.215c-0.162-0.146-0.244-0.33-0.244-0.547l1.471-36.404
					v-0.164c0.035-0.219,0.145-0.383,0.326-0.49c0.035,0,0.072-0.02,0.108-0.057c0.075,0,0.127-0.016,0.165-0.053h6.921
					c0.364,0,0.636,0.236,0.817,0.707l4.905,21.037l0.599,4.578l0.438-4.578l5.723-21.037c0.107-0.471,0.381-0.707,0.818-0.707
					h6.918c0.039,0.037,0.092,0.053,0.166,0.053c0,0.037,0.017,0.057,0.053,0.057c0.145,0.107,0.256,0.271,0.329,0.49v0.107
					l0.054,0.057L126.007,231.342z"/>
			</g>
		</g>
		<g>
			<g>
				<path fill="#EE2148" d="M149.197,194.883c1.818,6.104,3.616,12.189,5.397,18.256c1.78,6.068,3.578,12.156,5.396,18.258
					c0.071,0.182,0.008,0.352-0.19,0.518c-0.202,0.164-0.41,0.244-0.629,0.244h-6.211c-0.221,0-0.419-0.08-0.602-0.244
					c-0.18-0.166-0.308-0.336-0.38-0.518l-1.309-4.416h-10.955l-1.308,4.416c-0.073,0.182-0.2,0.352-0.381,0.518
					c-0.183,0.164-0.383,0.244-0.6,0.244h-6.213c-0.217,0-0.428-0.08-0.626-0.244c-0.2-0.166-0.264-0.336-0.19-0.518l10.788-36.514
					v-0.059c0.218-0.506,0.474-0.76,0.764-0.76h2.4h1.688h2.398c0.327,0,0.581,0.254,0.762,0.76V194.883z M148.489,219.625
					l-3.271-11.174l-3.322,11.174H148.489z"/>
			</g>
		</g>
		<g>
			<g>
				<path fill="#EE2148" d="M180.361,194.361c0.163,0.166,0.247,0.355,0.247,0.574v6.432c0,0.217-0.084,0.398-0.247,0.547
					c-0.163,0.141-0.354,0.215-0.57,0.215h-6.921v29.32c-0.075,0.438-0.331,0.654-0.77,0.654h-6.477
					c-0.438,0-0.694-0.217-0.767-0.654v-29.32h-6.923c-0.218,0-0.41-0.074-0.571-0.215c-0.163-0.148-0.246-0.33-0.246-0.547v-6.432
					c0-0.219,0.083-0.408,0.246-0.574c0.161-0.162,0.354-0.244,0.571-0.244h21.856C180.008,194.117,180.198,194.199,180.361,194.361
					z"/>
			</g>
		</g>
		<g>
			<g>
				<path fill="#EE2148" d="M193.699,194.99v36.406c0,0.51-0.253,0.762-0.762,0.762h-6.485c-0.51,0-0.764-0.252-0.764-0.762V194.99
					c0-0.51,0.254-0.762,0.764-0.762h6.485C193.446,194.229,193.699,194.48,193.699,194.99z"/>
			</g>
		</g>
		<g>
			<g>
				<path fill="#EE2148" d="M222.289,227.09c0,0.184-0.018,0.348-0.052,0.492c-0.039,0.145-0.082,0.291-0.139,0.438
					c-0.054,0.145-0.173,0.307-0.354,0.488l-3.107,3.053c-0.291,0.289-0.6,0.473-0.925,0.545c-0.146,0.035-0.292,0.053-0.438,0.053
					h-14.113c-0.183,0-0.346-0.018-0.492-0.053c-0.325-0.072-0.635-0.256-0.925-0.545l-3.054-3.053
					c-0.291-0.289-0.474-0.602-0.544-0.926c-0.037-0.145-0.054-0.309-0.054-0.492v-27.957c0-0.145,0.017-0.291,0.054-0.436
					c0.07-0.365,0.253-0.689,0.544-0.982l3.054-3.051c0.29-0.291,0.6-0.473,0.925-0.547c0.146-0.033,0.31-0.053,0.492-0.053h14.059
					c0.146,0,0.292,0.02,0.438,0.053c0.363,0.074,0.688,0.256,0.979,0.547l3.107,3.051c0.181,0.184,0.3,0.354,0.354,0.518
					c0.057,0.166,0.1,0.318,0.139,0.465c0.034,0.145,0.052,0.291,0.052,0.436V227.09z M207.521,202.074
					c-0.146,0-0.256,0.059-0.327,0.166l-0.927,0.867c-0.107,0.109-0.163,0.219-0.163,0.326v0.111v19.406
					c0,0.109,0.056,0.236,0.163,0.381l0.763,0.76h6.323l0.762-0.76c0.107-0.109,0.163-0.236,0.163-0.381v-19.406v-0.111
					c0-0.107-0.056-0.217-0.163-0.326l-0.871-0.867c-0.109-0.107-0.239-0.166-0.383-0.166H207.521z"/>
			</g>
		</g>
		<g>
			<g>
				<path fill="#EE2148" d="M251.664,194.824v36.57c0,0.184-0.073,0.354-0.218,0.52c-0.146,0.162-0.326,0.244-0.543,0.244h-8.611
					c-0.221,0-0.419-0.082-0.602-0.244c-0.18-0.166-0.311-0.336-0.38-0.52l-6.648-18.201v18.201c0,0.184-0.083,0.354-0.247,0.52
					c-0.163,0.162-0.336,0.244-0.519,0.244h-6.484c-0.218,0-0.4-0.082-0.544-0.244c-0.145-0.166-0.218-0.336-0.218-0.52v-36.57
					c0-0.506,0.253-0.762,0.762-0.762h8.121c0.397,0,0.653,0.256,0.763,0.762h0.055l7.195,21.037l0.107,0.602v-21.639
					c0-0.219,0.081-0.396,0.246-0.543c0.163-0.145,0.334-0.219,0.515-0.219h6.489C251.41,194.063,251.664,194.318,251.664,194.824z"
					/>
			</g>
		</g>
	</g>
</g>
<g>
	<g>
		<path fill="#3E4871" d="M251.447,180.336V176.4H19.188v3.936h2.953v4.922h-2.953v3.936h232.259v-3.936h-2.952v-4.922H251.447z
			 M32.967,185.258h-6.89v-4.922h6.89V185.258z M44.776,185.258h-7.873v-4.922h7.873V185.258z M56.587,185.258h-7.873v-4.922h7.873
			V185.258z M68.396,185.258h-7.873v-4.922h7.873V185.258z M80.206,185.258h-7.873v-4.922h7.873V185.258z M92.016,185.258h-7.873
			v-4.922h7.873V185.258z M103.825,185.258h-7.873v-4.922h7.873V185.258z M115.636,185.258h-7.874v-4.922h7.874V185.258z
			 M127.444,185.258h-7.873v-4.922h7.873V185.258z M139.255,185.258h-7.873v-4.922h7.873V185.258z M151.063,185.258h-7.872v-4.922
			h7.872V185.258z M162.874,185.258h-7.873v-4.922h7.873V185.258z M174.684,185.258h-7.873v-4.922h7.873V185.258z M186.494,185.258
			h-7.874v-4.922h7.874V185.258z M198.304,185.258h-7.873v-4.922h7.873V185.258z M210.113,185.258h-7.873v-4.922h7.873V185.258z
			 M221.923,185.258h-7.873v-4.922h7.873V185.258z M233.732,185.258h-7.873v-4.922h7.873V185.258z M244.559,185.258h-6.89v-4.922
			h6.89V185.258z"/>
	</g>
</g>
<g>
	<g>
		<path fill="#3E4871" d="M251.447,267.76v-3.936H19.188v3.936h2.953v4.922h-2.953v3.936h232.259v-3.936h-2.952v-4.922H251.447z
			 M32.967,272.682h-6.89v-4.922h6.89V272.682z M44.776,272.682h-7.873v-4.922h7.873V272.682z M56.587,272.682h-7.873v-4.922h7.873
			V272.682z M68.396,272.682h-7.873v-4.922h7.873V272.682z M80.206,272.682h-7.873v-4.922h7.873V272.682z M92.016,272.682h-7.873
			v-4.922h7.873V272.682z M103.825,272.682h-7.873v-4.922h7.873V272.682z M115.636,272.682h-7.874v-4.922h7.874V272.682z
			 M127.444,272.682h-7.873v-4.922h7.873V272.682z M139.255,272.682h-7.873v-4.922h7.873V272.682z M151.063,272.682h-7.872v-4.922
			h7.872V272.682z M162.874,272.682h-7.873v-4.922h7.873V272.682z M174.684,272.682h-7.873v-4.922h7.873V272.682z M186.494,272.682
			h-7.874v-4.922h7.874V272.682z M198.304,272.682h-7.873v-4.922h7.873V272.682z M210.113,272.682h-7.873v-4.922h7.873V272.682z
			 M221.923,272.682h-7.873v-4.922h7.873V272.682z M233.732,272.682h-7.873v-4.922h7.873V272.682z M244.559,272.682h-6.89v-4.922
			h6.89V272.682z"/>
	</g>
</g>
</svg>
