<?xml version="1.0" encoding="utf-8"?>
<!-- Generator: Adobe Illustrator 16.0.0, SVG Export Plug-In . SVG Version: 6.00 Build 0)  -->
<!DOCTYPE svg PUBLIC "-//W3C//DTD SVG 1.1//EN" "http://www.w3.org/Graphics/SVG/1.1/DTD/svg11.dtd">
<svg version="1.1" id="Capa_1" xmlns="http://www.w3.org/2000/svg" xmlns:xlink="http://www.w3.org/1999/xlink" x="0px" y="0px"
	 width="1000px" height="1000px" viewBox="0 0 1000 1000" enable-background="new 0 0 1000 1000" xml:space="preserve">
<rect x="273.773" y="129.071" fill="#ED2048" width="462.936" height="44.693"/>
<g>
	<rect x="273.773" y="813.07" fill="#ED2048" width="462.936" height="45.693"/>
	<rect x="273.773" y="174.141" fill="#ECF0F1" width="462.936" height="639.555"/>
	<polygon opacity="0.2" enable-background="new    " points="598.297,603.138 714.784,608.344 719.37,724.883 602.981,721.136 	"/>
	<polygon opacity="0.2" enable-background="new    " points="447.046,603.138 563.532,608.344 568.121,724.883 451.731,721.136 	"/>
	<g>
		<path opacity="0.2" enable-background="new    " d="M457.87,573.07c4.472,0.653,7.742,4.797,7.302,9.247
			c-0.438,4.448-4.422,7.526-8.895,6.874c-4.476-0.654-7.742-4.795-7.306-9.247C449.415,575.494,453.397,572.417,457.87,573.07z"/>
		<path opacity="0.2" enable-background="new    " d="M484.864,577.026c4.472,0.653,7.742,4.794,7.302,9.245
			c-0.439,4.451-4.422,7.527-8.894,6.875c-4.476-0.654-7.742-4.798-7.305-9.247C476.408,579.448,480.392,576.37,484.864,577.026z"/>
		<path opacity="0.2" enable-background="new    " d="M511.858,580.98c4.473,0.653,7.741,4.794,7.303,9.244
			c-0.438,4.452-4.422,7.528-8.896,6.875c-4.472-0.654-7.739-4.796-7.302-9.248C503.404,583.404,507.387,580.325,511.858,580.98z"/>
	</g>
	<polygon opacity="0.2" enable-background="new    " points="297.031,341.805 718.784,391.161 698.555,596.939 276.802,547.584 	"/>
	<path opacity="0.2" enable-background="new    " d="M607.705,203.842l22.994-38.779l17.09,32.848l37.319-2.971l-5.26,10.844
		c-4.995,10.315-10.827,20.199-17.42,29.537l-3.543,5.021l-10.827-6.691l0.281-0.573l-1.649-0.903
		c-25.979,36.509-62.682,63.305-105.567,77.227c-42.89,13.921-89.138,14.05-133.123,0.25l-0.729,1.677l0.589,0.291l-4.281,11.595
		l-6.026-1.914c-11.207-3.56-22.163-7.995-32.736-13.256l-11.117-5.53l31.457-19.353l-7.537-35.949l43.081,17.333l5.651-13
		l5.335,1.217c28.861,6.585,59.847,3.673,87.285-5.234c27.441-8.907,53.847-24.622,72.474-46.624l3.442-4.067L607.705,203.842z"/>
	<g>
		
			<rect x="284.67" y="357.563" transform="matrix(0.9952 0.0978 -0.0978 0.9952 47.4505 -46.1154)" fill="#FFFFFF" width="418.884" height="206.768"/>
		
			<rect x="292.877" y="368.368" transform="matrix(0.9952 0.0978 -0.0978 0.9952 47.4509 -46.1154)" fill="#ED2048" width="402.467" height="185.162"/>
	</g>
	<g>
		<rect x="295.795" y="730.507" opacity="0.3" enable-background="new    " width="116.39" height="13.134"/>
		<rect x="295.795" y="749.414" opacity="0.3" enable-background="new    " width="116.39" height="7.68"/>
		<rect x="295.795" y="763.346" opacity="0.3" enable-background="new    " width="116.39" height="7.68"/>
		<rect x="295.795" y="777.276" opacity="0.3" enable-background="new    " width="79.074" height="7.679"/>
	</g>
	<polygon opacity="0.2" enable-background="new    " points="291.472,607.625 403.536,644.273 372.099,754.875 260.035,718.226 	"/>
	<g>
		<rect x="447.046" y="603.138" fill="#FFFFFF" width="116.39" height="116.394"/>
		<rect x="455.254" y="611.346" fill="#ED2048" width="99.973" height="99.977"/>
	</g>
	<g>
		<rect x="447.046" y="730.507" opacity="0.3" enable-background="new    " width="116.39" height="13.134"/>
		<rect x="447.046" y="749.414" opacity="0.3" enable-background="new    " width="116.39" height="7.68"/>
		<rect x="447.046" y="763.346" opacity="0.3" enable-background="new    " width="116.39" height="7.68"/>
		<rect x="447.046" y="777.276" opacity="0.3" enable-background="new    " width="79.075" height="7.679"/>
	</g>
	<g>
		<rect x="598.297" y="603.138" fill="#FFFFFF" width="116.391" height="116.394"/>
		<rect x="606.506" y="611.346" fill="#1F273A" width="99.973" height="99.977"/>
	</g>
	<g>
		<rect x="598.297" y="730.507" opacity="0.3" enable-background="new    " width="116.391" height="13.134"/>
		<rect x="598.297" y="749.414" opacity="0.3" enable-background="new    " width="116.391" height="7.68"/>
		<rect x="598.297" y="763.346" opacity="0.3" enable-background="new    " width="116.391" height="7.68"/>
		<rect x="598.297" y="777.276" opacity="0.3" enable-background="new    " width="79.074" height="7.679"/>
	</g>
	<g>
		<path fill="#FFFFFF" d="M600.782,191.321l22.993-39.662l17.091,32.194l37.315-4.403l-5.254,11.046
			c-5.001,10.508-10.831,20.614-17.422,30.205l-3.543,5.156l-10.827-6.276l0.281-0.583l-1.653-0.84
			c-25.975,37.505-62.679,65.708-105.565,81.274c-42.891,15.566-89.14,17.468-133.121,5.354l-0.729,1.705l0.59,0.267l-4.278,11.758
			l-6.025-1.683c-11.208-3.13-22.165-7.145-32.739-12l-11.115-5.104l31.456-20.558l-7.535-35.66l43.082,15.682l5.651-13.217
			l5.335,1.012c28.86,5.479,59.847,1.378,87.285-8.581c27.441-9.959,53.844-26.688,72.47-49.402l3.444-4.2L600.782,191.321z"/>
		<path fill="#ED2048" d="M531.894,293.08c43.231-15.69,78.281-43.922,102.549-79.097l-1.384,1.324l-43.313-22.014v-0.002
			c-17.548,21.399-43.664,39.955-75.389,51.469c-31.729,11.514-63.665,14.029-90.854,8.867l0.001,0.001l-19.112,44.67l-1.902-0.13
			C443.667,309.59,488.665,308.771,531.894,293.08z"/>
		<path fill="#ED2048" d="M379.823,254.025l5.976,28.274l-25.087,16.396c10.242,4.702,20.855,8.593,31.737,11.633
			c-0.308-0.138-0.61-0.274-0.915-0.413l19.108-44.669L379.823,254.025z"/>
		<path fill="#ED2048" d="M623.516,165.579l13.553,25.524l29.763-3.511c-4.841,10.177-10.489,19.971-16.888,29.282
			c0.145-0.302,0.292-0.602,0.436-0.904l-43.313-22.014L623.516,165.579z"/>
	</g>
	<g>
		<path fill="#FFFFFF" d="M428.741,124.446c0,1.769,2.546,2.166,3.045,0.387c0.031-0.131,0.048-0.25,0.048-0.387v-3.093
			c0-1.77-2.547-2.166-3.044-0.387c-0.031,0.131-0.049,0.25-0.049,0.387V124.446z"/>
		<path fill="#FFFFFF" d="M428.741,136.818c0,1.77,2.546,2.166,3.045,0.387c0.031-0.13,0.048-0.25,0.048-0.387v-3.093
			c0-1.769-2.547-2.166-3.044-0.386c-0.031,0.131-0.049,0.25-0.049,0.386V136.818z"/>
		<path fill="#FFFFFF" d="M428.741,149.19c0,1.769,2.546,2.165,3.045,0.386c0.031-0.131,0.048-0.25,0.048-0.386v-3.093
			c0-1.77-2.547-2.166-3.044-0.387c-0.031,0.131-0.049,0.25-0.049,0.387V149.19z"/>
		<path fill="#FFFFFF" d="M428.741,161.561c0,1.771,2.546,2.165,3.045,0.386c0.031-0.13,0.048-0.25,0.048-0.386v-3.093
			c0-1.769-2.547-2.165-3.044-0.386c-0.031,0.131-0.049,0.25-0.049,0.386V161.561z"/>
		<path fill="#FFFFFF" d="M428.741,173.932c0,1.769,2.546,2.166,3.045,0.387c0.031-0.131,0.048-0.25,0.048-0.387v-3.092
			c0-1.77-2.547-2.166-3.044-0.387c-0.031,0.131-0.049,0.251-0.049,0.387V173.932z"/>
		<path fill="#FFFFFF" d="M428.741,186.304c0,1.769,2.546,2.165,3.045,0.386c0.031-0.13,0.048-0.25,0.048-0.386v-3.094
			c0-1.769-2.547-2.165-3.044-0.386c-0.031,0.13-0.049,0.25-0.049,0.386V186.304z"/>
		<path fill="#FFFFFF" d="M428.741,198.675c0,1.769,2.546,2.166,3.045,0.386c0.031-0.13,0.048-0.25,0.048-0.386v-3.093
			c0-1.771-2.547-2.166-3.044-0.387c-0.031,0.131-0.049,0.25-0.049,0.387V198.675z"/>
		<path fill="#FFFFFF" d="M428.741,211.047c0,1.769,2.546,2.165,3.045,0.386c0.031-0.13,0.048-0.25,0.048-0.386v-3.093
			c0-1.77-2.547-2.166-3.044-0.387c-0.031,0.13-0.049,0.25-0.049,0.387V211.047z"/>
		<path fill="#FFFFFF" d="M428.741,223.417c0,1.77,2.546,2.166,3.045,0.387c0.031-0.13,0.048-0.249,0.048-0.387v-3.092
			c0-1.77-2.547-2.166-3.044-0.386c-0.031,0.13-0.049,0.25-0.049,0.386V223.417z"/>
		<path fill="#FFFFFF" d="M428.741,235.789c0,1.769,2.546,2.165,3.045,0.386c0.031-0.131,0.048-0.25,0.048-0.386v-3.093
			c0-1.77-2.547-2.166-3.044-0.386c-0.031,0.13-0.049,0.25-0.049,0.386V235.789z"/>
		<path fill="#FFFFFF" d="M431.834,108.982c0-1.769-2.547-2.165-3.044-0.386c-0.031,0.131-0.049,0.25-0.049,0.386v3.093
			c0,1.77,2.546,2.165,3.045,0.386c0.031-0.13,0.048-0.25,0.048-0.386V108.982z"/>
		<path fill="#FFFFFF" d="M428.741,248.354c0,1.771,2.546,2.166,3.045,0.386c0.031-0.13,0.048-0.25,0.048-0.386v-3.093
			c0-1.77-2.547-2.166-3.044-0.386c-0.031,0.13-0.049,0.249-0.049,0.386V248.354z"/>
	</g>
	<path fill="#FFFFFF" d="M285.812,490.889c-1.117-1.304-3.287-0.049-2.581,1.646c0.068,0.143,0.137,0.256,0.24,0.376l2.022,2.34
		c1.117,1.304,3.288,0.05,2.581-1.646c-0.069-0.144-0.138-0.256-0.241-0.375L285.812,490.889L285.812,490.889z M406.688,635.586
		c1.118,1.304,3.288,0.049,2.581-1.646c-0.064-0.146-0.136-0.258-0.236-0.376l-1.929-2.229c-1.115-1.305-3.284-0.05-2.578,1.646
		c0.065,0.145,0.137,0.256,0.238,0.375L406.688,635.586L406.688,635.586z M398.697,626.332c1.118,1.305,3.288,0.052,2.581-1.646
		c-0.068-0.144-0.14-0.256-0.24-0.377l-2.021-2.341c-1.115-1.304-3.288-0.05-2.582,1.646c0.069,0.144,0.14,0.255,0.241,0.376
		L398.697,626.332L398.697,626.332z M390.611,616.971c1.114,1.305,3.287,0.049,2.581-1.646c-0.069-0.146-0.14-0.257-0.24-0.377
		l-2.022-2.341c-1.118-1.306-3.288-0.052-2.581,1.646c0.069,0.144,0.14,0.255,0.24,0.376L390.611,616.971L390.611,616.971z
		 M382.524,607.607c1.115,1.305,3.285,0.05,2.581-1.646c-0.068-0.145-0.14-0.255-0.24-0.375l-2.021-2.342
		c-1.119-1.305-3.288-0.05-2.581,1.646c0.068,0.146,0.139,0.259,0.24,0.375L382.524,607.607L382.524,607.607z M374.438,598.243
		c1.118,1.305,3.288,0.05,2.581-1.646c-0.065-0.144-0.137-0.255-0.237-0.376l-2.022-2.342c-1.118-1.304-3.287-0.049-2.581,1.646
		c0.069,0.143,0.139,0.256,0.241,0.375L374.438,598.243L374.438,598.243z M366.353,588.881c1.118,1.305,3.287,0.051,2.581-1.646
		c-0.065-0.145-0.137-0.255-0.237-0.376l-2.022-2.343c-1.118-1.303-3.288-0.051-2.581,1.646c0.069,0.142,0.138,0.254,0.241,0.375
		L366.353,588.881L366.353,588.881z M358.266,579.518c1.118,1.308,3.288,0.053,2.581-1.646c-0.065-0.144-0.136-0.254-0.237-0.375
		l-2.021-2.34c-1.118-1.307-3.288-0.052-2.581,1.645c0.068,0.145,0.137,0.255,0.241,0.376L358.266,579.518L358.266,579.518z
		 M350.18,570.154c1.118,1.305,3.287,0.051,2.581-1.646c-0.066-0.143-0.137-0.257-0.239-0.376l-2.021-2.341
		c-1.118-1.306-3.288-0.05-2.581,1.646c0.068,0.145,0.137,0.255,0.24,0.375L350.18,570.154L350.18,570.154z M342.094,560.793
		c1.117,1.303,3.288,0.049,2.581-1.646c-0.066-0.145-0.138-0.258-0.241-0.375l-2.021-2.345c-1.118-1.303-3.288-0.049-2.581,1.646
		c0.068,0.144,0.137,0.256,0.24,0.377L342.094,560.793L342.094,560.793z M334.008,551.43c1.118,1.306,3.287,0.049,2.581-1.646
		c-0.065-0.146-0.138-0.255-0.241-0.376l-2.021-2.342c-1.118-1.306-3.288-0.051-2.581,1.646c0.066,0.145,0.136,0.256,0.24,0.377
		L334.008,551.43L334.008,551.43z M325.923,542.066c1.118,1.305,3.287,0.05,2.581-1.646c-0.069-0.146-0.138-0.256-0.241-0.376
		l-2.021-2.341c-1.118-1.307-3.288-0.05-2.582,1.646c0.065,0.145,0.138,0.255,0.241,0.375L325.923,542.066L325.923,542.066z
		 M317.837,532.702c1.117,1.306,3.287,0.052,2.581-1.646c-0.068-0.143-0.137-0.255-0.24-0.376l-2.021-2.341
		c-1.117-1.303-3.287-0.049-2.581,1.646c0.066,0.143,0.138,0.256,0.241,0.375L317.837,532.702L317.837,532.702z M309.75,523.34
		c1.118,1.308,3.288,0.051,2.581-1.646c-0.068-0.146-0.137-0.256-0.24-0.377l-2.021-2.342c-1.117-1.304-3.287-0.051-2.581,1.646
		c0.066,0.143,0.138,0.254,0.239,0.375L309.75,523.34L309.75,523.34z M301.664,513.979c1.118,1.306,3.288,0.051,2.582-1.646
		c-0.068-0.146-0.137-0.256-0.24-0.377l-2.021-2.34c-1.118-1.308-3.288-0.051-2.582,1.646c0.068,0.145,0.137,0.255,0.241,0.375
		L301.664,513.979L301.664,513.979z M293.579,504.615c1.117,1.303,3.287,0.049,2.581-1.646c-0.069-0.143-0.137-0.256-0.241-0.376
		l-2.021-2.34c-1.118-1.304-3.288-0.05-2.582,1.646c0.068,0.144,0.137,0.254,0.24,0.375L293.579,504.615z"/>
	<g>
		<path fill="#ED2048" d="M244.155,551.344c-3.997-0.097-7.099,0.395-7.099,3.393s3.375,2.614,7.371,2.714
			c3.996,0.097,7.174-0.396,7.099-2.362C251.451,553.116,248.15,551.441,244.155,551.344z"/>
		<path fill="#ED2048" d="M251.521,511.291c-0.633,1.592-0.948,3.117-1.071,6.348c-0.051,1.354-0.177,2.791-0.386,4.304
			c-0.425,3.066-1.632,11.258-2.349,13.729c-0.954,3.29-0.419,14.307-0.973,15.291c-0.699,1.246-8.946,2.359-9.6,1.354
			c-1.308-2.013,0.866-6.341,1.645-10.734c0.287-1.619,0.75-3.146,1.103-4.569c0.747-3.019,0.58-2.146,0.715-5.206
			c0.126-2.863,0.003-6.328,0.525-10.102c0.417-3.016,0.911-5.729,1.468-8.021c0.374-1.533,0.481-1.953,0.404-2.389L251.521,511.291
			L251.521,511.291z"/>
		<path fill="#ED2048" d="M248.87,551.344c-3.996-0.097-7.099,0.395-7.099,3.393s3.375,2.614,7.371,2.714
			c3.996,0.097,7.173-0.396,7.099-2.362C256.165,553.116,252.865,551.441,248.87,551.344z"/>
		<path fill="#ED2048" d="M260.761,474.27c-0.002,2.559,1.211,7.029-0.56,12.2c-4.152,12.118-6.055,16.387-8.569,24.451
			c-0.542,1.736-0.729,3.238-0.474,6.718c0.1,1.354,0.136,2.791,0.095,4.304c-0.082,3.066-0.375,11.258-0.816,13.729
			c-0.587,3.29,1.177,14.307,0.734,15.291c-0.561,1.246-8.683,2.359-9.449,1.354c-1.532-2.013,0.158-6.341,0.446-10.734
			c0.106-1.619,0.399-3.146,0.592-4.569c0.41-3.019,0.34-2.146,0.134-5.206c-0.194-2.863-0.704-6.328-0.603-10.102
			c0.081-3.016,0.271-5.729,0.573-8.021c0.386-2.932,0.256-1.793-0.699-4.46c-1.568-4.372-1.927-10.647,0.127-15.892
			C246.582,482.377,257.141,472.701,260.761,474.27z"/>
		<path fill="#FFD7B7" d="M261.246,474.028c-0.002,1.412-0.108,3.442-0.151,5.896c-2.7-0.571-4.675-2.333-5.471-3.985
			C257.978,474.271,260.03,473.502,261.246,474.028z"/>
		<path fill="#FFD7B7" d="M284.779,494.613c2.419,0.201,4.398-0.607,4.422-1.806c0.024-1.195-1.917-2.326-4.335-2.526
			s-4.397,0.606-4.422,1.805C280.42,493.281,282.361,494.413,284.779,494.613z"/>
		<circle fill="#FFD7B7" cx="264.425" cy="467.855" r="10.011"/>
		<path fill="#4A301B" d="M264.425,457.844c5.529,0,10.011,4.482,10.011,10.014c0,0.271-0.011,0.543-0.033,0.811
			c-2.11,0.566-4.992,1.63-10.802-0.811c-3.173-3.596-3.642,1.954-3.083,2.814c0.886,1.365-6.598,8.04-6.598-2.487
			C253.919,462.655,258.896,457.844,264.425,457.844z"/>
		<path fill="#ED2048" d="M264.453,457.173c5.909,0,10.715,4.718,10.856,10.595l-19.111-6.792
			C258.19,458.649,261.148,457.173,264.453,457.173z"/>
		<polygon fill="#ED2048" points="255.712,460.631 277.701,468.446 277.381,469.325 255.394,461.511 		"/>
		<path opacity="0.2" fill="#FFFFFF" enable-background="new    " d="M264.505,458.272c4.782,0,8.762,3.433,9.611,7.97
			c-1.464-4.235-5.484-7.277-10.217-7.277c-2.116,0-4.089,0.608-5.755,1.659C259.854,459.158,262.075,458.272,264.505,458.272z"/>
		<path fill="#ED2048" d="M274.564,494.613c-4.107,0.167-7.589-0.372-8.642-1.254c-1.787-0.754-4.394-2.617-7.002-5.114
			c-4.068-3.896-8.699-6.156-5.646-8.849c3.052-2.693,6.501,2.981,9.087,5.255c1.421,1.248,2.517,2.673,3.618,3.808
			c1.674,1.727,1.646,2.098,8.408,1.822c3.884-0.158,5.217-0.074,6.849,0.298c0.478,0.108,0.665,3.199,0.173,3.354
			C279.715,494.467,277.363,494.499,274.564,494.613z"/>
		<path fill="#FFD7B7" d="M280.903,501.299c2.288,0.813,4.408,0.533,4.737-0.618c0.328-1.147-1.261-2.738-3.548-3.549
			c-2.287-0.81-4.408-0.533-4.736,0.618C277.028,498.899,278.615,500.489,280.903,501.299z"/>
		<path fill="#ED2048" d="M271.025,498.694c-4.014-0.887-7.244-2.293-8.037-3.416c-1.535-1.187-3.582-3.651-5.466-6.73
			c-2.941-4.803-6.842-8.17-3.204-9.997c3.638-1.825,5.525,4.543,7.446,7.398c1.056,1.568,1.752,3.228,2.528,4.604
			c1.179,2.098,1.057,2.448,7.666,3.906c3.795,0.836,5.064,1.258,6.547,2.033c0.435,0.228-0.172,3.264-0.688,3.289
			C276.043,499.867,273.761,499.298,271.025,498.694z"/>
	</g>
	<path fill="#FFFFFF" d="M581.16,107.05c0-1.77-2.547-2.166-3.045-0.386c-0.03,0.13-0.049,0.25-0.049,0.386v3.092
		c0,1.77,2.547,2.166,3.045,0.387c0.028-0.131,0.049-0.25,0.049-0.387V107.05L581.16,107.05z M578.066,196.741
		c0,1.77,2.547,2.165,3.045,0.387c0.028-0.131,0.049-0.25,0.049-0.387v-3.093c0-1.769-2.547-2.166-3.045-0.387
		c-0.03,0.131-0.049,0.25-0.049,0.387V196.741L578.066,196.741z M578.066,184.371c0,1.769,2.547,2.166,3.045,0.386
		c0.028-0.131,0.049-0.25,0.049-0.386v-3.093c0-1.77-2.547-2.166-3.045-0.387c-0.03,0.13-0.049,0.25-0.049,0.387V184.371
		L578.066,184.371z M578.066,171.999c0,1.77,2.547,2.167,3.045,0.387c0.028-0.131,0.049-0.25,0.049-0.387v-3.092
		c0-1.769-2.547-2.166-3.045-0.387c-0.03,0.131-0.049,0.25-0.049,0.387V171.999L578.066,171.999z M578.066,156.535v3.093l0,0
		c0,1.769,2.547,2.165,3.045,0.386c0.028-0.131,0.049-0.25,0.049-0.386v-3.093c0-1.77-2.547-2.165-3.045-0.386
		C578.085,156.279,578.066,156.398,578.066,156.535 M578.066,147.256c0,1.77,2.547,2.166,3.045,0.387
		c0.028-0.131,0.049-0.25,0.049-0.387v-3.093c0-1.769-2.547-2.166-3.045-0.386c-0.03,0.131-0.049,0.25-0.049,0.386V147.256
		L578.066,147.256z M578.066,134.885c0,1.769,2.547,2.165,3.045,0.386c0.028-0.131,0.049-0.25,0.049-0.386v-3.093
		c0-1.77-2.547-2.165-3.045-0.386c-0.03,0.13-0.049,0.25-0.049,0.386V134.885L578.066,134.885z M578.066,122.513
		c0,1.77,2.547,2.166,3.045,0.386c0.028-0.131,0.049-0.25,0.049-0.386v-3.092c0-1.769-2.547-2.166-3.045-0.387
		c-0.03,0.131-0.049,0.25-0.049,0.387V122.513z"/>
	<g>
		<path fill="#3E4870" d="M406.071,89.085c-0.004,2.557,0.512,6.963-0.438,12.346c-1.463,8.305-1.195,16.464-2.457,21.737
			c-0.881,3.692-2.044,5.973-7.083,5.903c-8.942-0.122-12.874-9.998-8.584-20.95C391.802,97.17,402.45,87.515,406.071,89.085z"/>
		<path fill="#3E4870" d="M405.891,120.819c9.393,0,17.001,2.007,17.001,4.482c0,2.476-7.608,4.481-17.001,4.481
			c-9.391,0-15.893-1.13-15.893-3.605C389.998,123.702,396.5,120.819,405.891,120.819z"/>
		<path fill="#3E4870" d="M415.868,145.696c-3.311-2.244-6.801-2.689-7.805-0.993c-1.005,1.697,0.862,4.891,4.172,7.137
			c3.307,2.244,6.801,2.689,7.804,0.993C421.043,151.136,419.175,147.942,415.868,145.696z"/>
		<path fill="#3E4870" d="M412.324,133.077c3.242-6.148,7.552-10.244,9.627-9.15c2.076,1.094,1.13,6.966-2.111,13.113
			c-1.726,3.274-2.813,7.479-3.978,8.517c-1.021,0.91-7.104-0.337-7.396-1.569C407.888,141.529,410.269,136.975,412.324,133.077z"/>
		<path fill="#FFD7B7" d="M406.466,88.821c-0.002,1.411-0.104,3.443-0.148,5.897c-2.7-0.573-4.678-2.333-5.474-3.987
			C403.197,89.064,405.25,88.294,406.466,88.821z"/>
		<path fill="#3E4870" d="M407.581,99.443c4.069,3.896,6.596,7.858,5.646,8.849c-0.947,0.994-5.018-1.359-9.086-5.255
			c-4.066-3.896-8.695-6.156-5.646-8.849C401.547,91.495,403.513,95.549,407.581,99.443z"/>
		<path fill="#FFD7B7" d="M430,109.405c2.418,0.2,4.398-0.607,4.423-1.804c0.023-1.197-1.917-2.328-4.336-2.529
			c-2.418-0.199-4.396,0.609-4.422,1.805C425.641,108.074,427.582,109.206,430,109.405z"/>
		<circle fill="#FFD7B7" cx="409.646" cy="82.648" r="10.011"/>
		<path fill="#4A301B" d="M409.646,72.637c5.526,0,10.012,4.481,10.012,10.011c0,0.273-0.012,0.543-0.033,0.811
			c-2.11,0.566-4.992,1.63-10.802-0.811c-3.175-3.595-3.645,1.956-3.084,2.816c0.886,1.365-6.601,8.04-6.601-2.486
			C399.141,77.447,404.116,72.637,409.646,72.637z"/>
		<path fill="#3E4870" d="M409.673,71.966c5.909,0,10.716,4.718,10.856,10.594l-19.111-6.792
			C403.411,73.441,406.369,71.966,409.673,71.966z"/>
		<polygon fill="#3E4870" points="400.933,75.424 422.921,83.238 422.602,84.117 400.614,76.303 		"/>
		<path opacity="0.2" fill="#FFFFFF" enable-background="new    " d="M409.725,73.064c4.783,0,8.766,3.434,9.611,7.971
			c-1.463-4.236-5.484-7.277-10.216-7.277c-2.116,0-4.089,0.608-5.756,1.658C405.074,73.95,407.296,73.064,409.725,73.064z"/>
		<path fill="#3E4870" d="M419.784,109.405c-4.904,0.2-8.919-0.607-8.967-1.804c-0.052-1.197,4.904-2.37,8.792-2.529
			c3.883-0.157,5.217-0.073,6.849,0.298c0.478,0.108,0.665,3.199,0.173,3.354C424.936,109.259,422.583,109.291,419.784,109.405z"/>
		<path fill="#3E4870" d="M407.237,94.822c5.601,0.604,10.02,2.201,9.872,3.568c-0.147,1.365-4.809,1.982-10.406,1.378
			c-5.603-0.604-10.648,0.429-9.872-3.566C397.607,92.206,401.638,94.218,407.237,94.822z"/>
		<path fill="#FFD7B7" d="M431.078,89.039c2.038-1.317,3.114-3.164,2.403-4.127c-0.71-0.962-2.938-0.675-4.979,0.642
			c-2.04,1.317-3.114,3.165-2.404,4.127C426.813,90.644,429.04,90.356,431.078,89.039z"/>
		<path fill="#3E4870" d="M422.984,95.271c-3.768,3.151-7.438,4.959-8.207,4.042c-0.771-0.919,2.44-4.873,5.423-7.367
			c2.979-2.494,4.089-3.241,5.606-3.943c0.444-0.205,2.479,2.13,2.186,2.553C426.977,92.014,425.132,93.474,422.984,95.271z"/>
	</g>
	<g>
		<path fill="#3E4870" d="M604.016,88.821c0.004,2.558,0.354,7.151,0.039,12.609c-0.805,14.122-3.401,27.813,10.33,27.64
			c8.946-0.112,12.875-9.998,8.585-20.95C618.679,97.17,607.637,87.252,604.016,88.821z"/>
		<path fill="#3E4870" d="M604.592,120.819c-9.391,0-17.003,2.007-17.003,4.482c0,2.476,7.612,4.481,17.003,4.481
			c9.394,0,15.894-1.13,15.894-3.605C620.484,123.702,613.982,120.819,604.592,120.819z"/>
		<path fill="#3E4870" d="M594.613,145.696c3.307-2.244,6.801-2.689,7.804-0.993c1.005,1.697-0.863,4.891-4.171,7.137
			c-3.307,2.244-6.802,2.689-7.805,0.993C589.439,151.136,591.306,147.942,594.613,145.696z"/>
		<path fill="#3E4870" d="M598.157,133.077c-3.241-6.148-7.552-10.244-9.627-9.15c-2.075,1.094-1.13,6.966,2.108,13.113
			c1.729,3.274,2.813,7.479,3.979,8.517c1.021,0.91,7.104-0.337,7.395-1.569C602.595,141.529,600.212,136.975,598.157,133.077z"/>
		<path fill="#FFD7B7" d="M604.016,88.821c0.001,1.411,0.107,3.443,0.15,5.897c2.7-0.573,4.676-2.333,5.472-3.987
			C607.283,89.064,605.231,88.294,604.016,88.821z"/>
		<circle fill="#FFD7B7" cx="600.837" cy="82.648" r="10.011"/>
		<path fill="#4A301B" d="M600.837,72.637c-5.53,0-10.012,4.481-10.012,10.011c0,0.273,0.01,0.543,0.032,0.811
			c2.107,0.566,4.989,1.63,10.802-0.811c3.174-3.595,3.642,1.956,3.084,2.816c-0.89,1.365,6.599,8.04,6.599-2.486
			C611.342,77.447,606.365,72.637,600.837,72.637z"/>
		<path fill="#3E4870" d="M600.809,71.966c-5.904,0-10.716,4.718-10.854,10.594l19.111-6.792
			C607.071,73.441,604.112,71.966,600.809,71.966z"/>
		<polygon fill="#3E4870" points="609.549,75.424 587.56,83.238 587.88,84.117 609.868,76.303 		"/>
		<path opacity="0.2" fill="#FFFFFF" enable-background="new    " d="M600.757,73.064c-4.782,0-8.762,3.434-9.608,7.971
			c1.463-4.236,5.48-7.277,10.217-7.277c2.113,0,4.089,0.608,5.756,1.658C605.407,73.95,603.188,73.064,600.757,73.064z"/>
		<path fill="#3E4870" d="M602.9,99.443c-4.069,3.896-6.599,7.858-5.646,8.849c0.949,0.994,5.021-1.359,9.086-5.255
			c4.069-3.896,8.699-6.156,5.646-8.849C608.933,91.495,606.969,95.549,602.9,99.443z"/>
		<path fill="#FFD7B7" d="M580.481,109.405c-2.419,0.2-4.398-0.607-4.425-1.804c-0.021-1.197,1.917-2.328,4.337-2.529
			c2.419-0.199,4.396,0.609,4.423,1.805C584.841,108.074,582.899,109.206,580.481,109.405z"/>
		<path fill="#3E4870" d="M590.698,109.405c4.9,0.2,8.919-0.607,8.967-1.804c0.049-1.197-4.907-2.37-8.791-2.529
			c-3.884-0.157-5.219-0.073-6.849,0.298c-0.479,0.108-0.665,3.199-0.177,3.354C585.547,109.259,587.898,109.291,590.698,109.405z"
			/>
		<path fill="#3E4870" d="M604.288,101.764c-2.201,5.184-2.961,9.822-1.695,10.359c1.267,0.537,4.074-3.229,6.275-8.415
			c2.201-5.185,5.563-9.089,1.694-10.359C606.696,92.079,606.49,96.58,604.288,101.764z"/>
		<path fill="#FFD7B7" d="M587.619,119.764c-2.146,1.138-4.28,1.178-4.774,0.087c-0.495-1.09,0.845-2.895,2.986-4.034
			c2.144-1.138,4.28-1.177,4.774-0.087C591.1,116.821,589.763,118.626,587.619,119.764z"/>
		<path fill="#3E4870" d="M597.007,115.733c4.585-1.752,7.955-4.078,7.528-5.196c-0.429-1.119-5.445-0.241-9.076,1.146
			c-3.631,1.387-4.823,1.991-6.176,2.976c-0.396,0.289,0.648,3.202,1.165,3.151C592.216,117.632,594.39,116.733,597.007,115.733z"/>
	</g>
	<g>
		<polygon fill="#1F273A" points="659.154,244.383 882.3,869.063 890.12,869.063 666.974,244.383 		"/>
		<polygon fill="#1F273A" points="698.742,244.383 921.89,869.063 929.71,869.063 706.563,244.383 		"/>
		<g>
			<rect x="880.654" y="846.911" fill="#1F273A" width="38.924" height="6.388"/>
			<path fill="#1F273A" d="M871.19,826.654c12.975,0,25.946,0,38.925,0c0-2.131,0-4.262,0-6.391c-12.979,0-25.95,0-38.925,0
				C871.19,822.395,871.19,824.523,871.19,826.654z"/>
			<path fill="#1F273A" d="M861.729,800.007c12.978,0,25.949,0,38.928,0c0-2.129,0-4.258,0-6.388c-12.979,0-25.95,0-38.928,0
				C861.729,795.749,861.729,797.878,861.729,800.007z"/>
			<path fill="#1F273A" d="M852.266,773.363c12.977,0,25.948,0,38.927,0c0-2.13,0-4.263,0-6.392c-12.979,0-25.95,0-38.927,0
				C852.266,769.104,852.266,771.233,852.266,773.363z"/>
			<path fill="#1F273A" d="M842.803,746.716c12.978,0,25.949,0,38.925,0c0-2.13,0-4.259,0-6.388c-12.976,0-25.947,0-38.925,0
				C842.803,742.457,842.803,744.586,842.803,746.716z"/>
			<path fill="#1F273A" d="M833.34,720.07c12.978,0,25.948,0,38.923,0c0-2.129,0-4.261,0-6.391c-12.975,0-25.945,0-38.923,0
				C833.34,715.813,833.34,717.942,833.34,720.07z"/>
			<path fill="#1F273A" d="M823.878,693.426c12.973,0,25.947,0,38.922,0c0-2.131,0-4.26,0-6.389c-12.975,0-25.949,0-38.922,0
				C823.878,689.166,823.878,691.295,823.878,693.426z"/>
			<path fill="#1F273A" d="M814.414,666.779c12.975,0,25.949,0,38.923,0c0-2.129,0-4.258,0-6.389c-12.974,0-25.948,0-38.923,0
				C814.414,662.521,814.414,664.65,814.414,666.779z"/>
			<path fill="#1F273A" d="M804.952,640.134c12.973,0,25.947,0,38.922,0c0-2.129,0-4.259,0-6.388c-12.975,0-25.949,0-38.922,0
				C804.952,635.875,804.952,638.005,804.952,640.134z"/>
			<path fill="#1F273A" d="M795.488,613.49c12.974,0,25.946,0,38.924,0c0-2.132,0-4.263,0-6.392c-12.975,0-25.95,0-38.924,0
				C795.488,609.23,795.488,611.359,795.488,613.49z"/>
			<path fill="#1F273A" d="M786.025,586.843c12.975,0,25.945,0,38.923,0c0-2.129,0-4.258,0-6.388c-12.978,0-25.948,0-38.923,0
				C786.025,582.585,786.025,584.714,786.025,586.843z"/>
			<path fill="#1F273A" d="M776.563,560.198c12.976,0,25.948,0,38.926,0c0-2.13,0-4.261,0-6.391c-12.978,0-25.95,0-38.926,0
				C776.563,555.939,776.563,558.069,776.563,560.198z"/>
			<path fill="#1F273A" d="M767.1,533.552c12.978,0,25.949,0,38.926,0c0-2.129,0-4.258,0-6.387c-12.977,0-25.948,0-38.926,0
				C767.1,529.294,767.1,531.423,767.1,533.552z"/>
			<path fill="#1F273A" d="M757.638,506.906c12.976,0,25.947,0,38.922,0c0-2.13,0-4.259,0-6.391c-12.975,0-25.946,0-38.922,0
				C757.638,502.648,757.638,504.777,757.638,506.906z"/>
			<path fill="#1F273A" d="M748.175,480.261c12.977,0,25.948,0,38.923,0c0-2.129,0-4.259,0-6.388c-12.975,0-25.946,0-38.923,0
				C748.175,476.003,748.175,478.133,748.175,480.261z"/>
			<path fill="#1F273A" d="M738.712,453.616c12.974,0,25.947,0,38.922,0c0-2.129,0-4.259,0-6.39c-12.975,0-25.948,0-38.922,0
				C738.712,449.357,738.712,451.487,738.712,453.616z"/>
			<path fill="#1F273A" d="M729.249,426.971c12.975,0,25.948,0,38.923,0c0-2.13,0-4.259,0-6.388c-12.975,0-25.948,0-38.923,0
				C729.249,422.712,729.249,424.841,729.249,426.971z"/>
			<path fill="#1F273A" d="M719.785,400.325c12.975,0,25.949,0,38.924,0c0-2.13,0-4.259,0-6.388c-12.975,0-25.949,0-38.924,0
				C719.785,396.067,719.785,398.196,719.785,400.325z"/>
			<path fill="#1F273A" d="M710.323,373.68c12.975,0,25.948,0,38.923,0c0-2.129,0-4.259,0-6.389c-12.975,0-25.948,0-38.923,0
				C710.323,369.421,710.323,371.55,710.323,373.68z"/>
			<path fill="#1F273A" d="M700.86,347.034c12.974,0,25.945,0,38.923,0c0-2.129,0-4.258,0-6.387c-12.978,0-25.949,0-38.923,0
				C700.86,342.776,700.86,344.905,700.86,347.034z"/>
			<path fill="#1F273A" d="M691.396,320.388c12.976,0,25.947,0,38.925,0c0-2.129,0-4.258,0-6.388c-12.978,0-25.949,0-38.925,0
				C691.396,316.13,691.396,318.259,691.396,320.388z"/>
			<rect x="681.935" y="287.356" fill="#1F273A" width="38.926" height="6.387"/>
		</g>
	</g>
	<g>
		<path fill="#3E4870" d="M693.872,282.042c3.995-0.097,7.099,0.392,7.099,3.391c0,2.998-3.376,2.615-7.37,2.712
			c-3.993,0.097-7.175-0.392-7.1-2.361C686.574,283.814,689.876,282.139,693.872,282.042z"/>
		<path fill="#3E4870" d="M686.505,241.988c0.634,1.592,0.948,3.119,1.07,6.348c0.052,1.351,0.178,2.792,0.386,4.303
			c0.425,3.067,1.632,11.256,2.352,13.729c0.951,3.29,0.42,14.305,0.974,15.291c0.7,1.246,8.947,2.359,9.602,1.352
			c1.31-2.009-0.866-6.338-1.645-10.735c-0.287-1.619-0.752-3.146-1.104-4.569c-0.748-3.018-0.58-2.149-0.716-5.206
			c-0.125-2.866-0.003-6.329-0.524-10.103c-0.419-3.015-0.909-5.727-1.469-8.02c-0.374-1.537-0.479-1.956-0.402-2.391
			L686.505,241.988L686.505,241.988z"/>
		<path fill="#3E4870" d="M689.155,282.042c3.996-0.097,7.1,0.392,7.1,3.391c0,2.998-3.375,2.615-7.371,2.712
			c-3.995,0.097-7.173-0.392-7.099-2.361C681.861,283.814,685.161,282.139,689.155,282.042z"/>
		<path fill="#3E4870" d="M677.264,204.967c0.003,2.557-1.211,7.029,0.563,12.201c4.149,12.117,6.055,16.384,8.566,24.449
			c0.541,1.738,0.729,3.239,0.477,6.719c-0.103,1.351-0.136,2.792-0.095,4.303c0.081,3.067,0.375,11.256,0.814,13.729
			c0.586,3.29-1.179,14.305-0.733,15.291c0.563,1.246,8.684,2.359,9.447,1.352c1.532-2.009-0.157-6.338-0.443-10.735
			c-0.106-1.619-0.398-3.146-0.595-4.569c-0.407-3.018-0.34-2.149-0.133-5.206c0.193-2.866,0.703-6.329,0.604-10.103
			c-0.08-3.015-0.271-5.727-0.572-8.02c-0.388-2.933-0.257-1.794,0.699-4.461c1.566-4.373,1.928-10.649-0.128-15.892
			C691.444,213.074,680.885,203.398,677.264,204.967z"/>
		<path fill="#FFD7B7" d="M676.779,204.726c0.002,1.412,0.105,3.443,0.148,5.897c2.7-0.573,4.678-2.333,5.473-3.988
			C680.049,204.968,677.994,204.199,676.779,204.726z"/>
		<path fill="#FFD7B7" d="M653.246,225.311c-2.418,0.2-4.397-0.608-4.424-1.805c-0.021-1.196,1.918-2.328,4.338-2.527
			c2.416-0.2,4.396,0.608,4.422,1.804C657.605,223.979,655.665,225.111,653.246,225.311z"/>
		<circle fill="#FFD7B7" cx="673.601" cy="198.553" r="10.011"/>
		<path fill="#4A301B" d="M673.601,188.542c-5.526,0-10.012,4.481-10.012,10.011c0,0.273,0.012,0.543,0.033,0.813
			c2.111,0.566,4.993,1.63,10.803-0.813c3.174-3.595,3.644,1.956,3.083,2.815c-0.887,1.366,6.601,8.041,6.601-2.486
			C684.105,193.353,679.13,188.542,673.601,188.542z"/>
		<path fill="#3E4870" d="M673.573,187.871c-5.909,0-10.715,4.718-10.856,10.594l19.111-6.792
			C679.836,189.346,676.877,187.871,673.573,187.871z"/>
		<polygon fill="#3E4870" points="682.314,191.329 660.325,199.143 660.645,200.023 682.633,192.209 		"/>
		<path opacity="0.2" fill="#FFFFFF" enable-background="new    " d="M673.521,188.969c-4.781,0-8.765,3.433-9.609,7.97
			c1.463-4.236,5.48-7.277,10.216-7.277c2.116,0,4.088,0.608,5.755,1.659C678.173,189.856,675.95,188.969,673.521,188.969z"/>
		<path fill="#3E4870" d="M663.461,225.311c4.107,0.167,7.59-0.372,8.643-1.254c1.787-0.755,4.396-2.618,7.005-5.114
			c4.064-3.895,8.694-6.156,5.646-8.849c-3.051-2.694-6.5,2.983-9.087,5.255c-1.421,1.249-2.518,2.674-3.617,3.808
			c-1.675,1.726-1.646,2.097-8.407,1.822c-3.885-0.159-5.219-0.074-6.852,0.297c-0.479,0.109-0.664,3.199-0.171,3.354
			C658.311,225.164,660.662,225.197,663.461,225.311z"/>
		<path fill="#FFD7B7" d="M657.123,231.997c-2.289,0.81-4.408,0.533-4.737-0.617c-0.327-1.151,1.261-2.74,3.549-3.55
			c2.286-0.81,4.407-0.534,4.735,0.617C660.999,229.597,659.41,231.187,657.123,231.997z"/>
		<path fill="#3E4870" d="M667,229.392c4.015-0.885,7.245-2.293,8.038-3.416c1.535-1.186,3.581-3.651,5.467-6.73
			c2.94-4.803,6.84-8.17,3.202-9.996c-3.637-1.825-5.524,4.542-7.446,7.398c-1.056,1.571-1.753,3.228-2.524,4.605
			c-1.183,2.095-1.061,2.447-7.666,3.905c-3.795,0.837-5.064,1.258-6.548,2.033c-0.438,0.228,0.173,3.263,0.688,3.288
			C661.982,230.564,664.265,229.996,667,229.392z"/>
	</g>
	<g>
		
			<rect x="277.932" y="616.718" transform="matrix(0.9628 0.2701 -0.2701 0.9628 194.7964 -65.7038)" fill="#FFFFFF" width="116.379" height="116.38"/>
		
			<rect x="286.137" y="624.924" transform="matrix(0.9628 0.2701 -0.2701 0.9628 194.7972 -65.7032)" fill="#3E4870" width="99.964" height="99.966"/>
	</g>
	<g>
		<circle fill="#3E4870" cx="455.172" cy="578.423" r="8.137"/>
		<circle fill="#ED2048" cx="482.167" cy="581.075" r="8.138"/>
		<circle fill="#1F273A" cx="509.163" cy="583.73" r="8.138"/>
	</g>
	<polygon fill="#1F273A" points="311.833,889.82 438.86,889.82 438.86,817.813 289.68,817.813 	"/>
	<g enable-background="new    ">
		<path fill="#FFFFFF" d="M328.632,395.615c-0.472,1.505-1.113,2.755-1.922,3.751c-0.81,0.995-1.807,1.72-2.993,2.171
			c-1.187,0.453-2.606,0.596-4.262,0.425c-1.598-0.165-2.93-0.599-3.997-1.298c-1.067-0.7-1.901-1.628-2.503-2.783
			c-0.603-1.155-0.987-2.512-1.159-4.068c-0.171-1.556-0.161-3.259,0.03-5.11l1.859-18.02l5.381,0.556l-1.86,18.019
			c-0.267,2.591-0.166,4.443,0.305,5.556c0.473,1.114,1.316,1.733,2.533,1.858c1.245,0.129,2.19-0.306,2.836-1.304
			c0.646-0.997,1.104-2.792,1.371-5.383l1.86-18.019l5.379,0.556l-1.853,17.934C329.441,392.392,329.104,394.111,328.632,395.615z"
			/>
		<path fill="#FFFFFF" d="M346.339,404.262l-4.132-13.89c-0.302-0.981-0.602-2.047-0.9-3.2c-0.298-1.153-0.544-2.186-0.737-3.098
			c-0.047,0.456-0.095,0.977-0.14,1.563c-0.046,0.583-0.095,1.19-0.145,1.818c-0.051,0.628-0.107,1.239-0.168,1.838
			c-0.063,0.597-0.116,1.125-0.163,1.579l-1.301,12.596l-4.867-0.502l3.086-29.889l5.38,0.555l3.899,13.651
			c0.124,0.474,0.264,0.992,0.422,1.555c0.157,0.563,0.313,1.14,0.469,1.73c0.154,0.593,0.304,1.162,0.449,1.708
			c0.144,0.548,0.264,1.041,0.36,1.483c0.048-0.455,0.089-0.991,0.124-1.605c0.035-0.615,0.08-1.244,0.132-1.885
			c0.052-0.644,0.102-1.263,0.149-1.862c0.047-0.6,0.097-1.141,0.147-1.625l1.277-12.383l4.825,0.498l-3.086,29.889L346.339,404.262
			z"/>
		<path fill="#FFFFFF" d="M376.707,392.251c-0.27,2.619-0.773,4.847-1.51,6.684c-0.736,1.839-1.673,3.315-2.811,4.437
			c-1.137,1.119-2.445,1.891-3.928,2.313c-1.482,0.424-3.092,0.544-4.828,0.364l-6.618-0.684l3.086-29.889l6.746,0.697
			c1.793,0.185,3.365,0.636,4.716,1.351s2.454,1.728,3.313,3.038c0.857,1.313,1.444,2.933,1.763,4.865
			C376.954,387.357,376.978,389.632,376.707,392.251z M371.233,391.771c0.141-1.366,0.188-2.656,0.142-3.869
			c-0.046-1.213-0.243-2.283-0.591-3.21c-0.349-0.929-0.877-1.681-1.59-2.258c-0.713-0.576-1.664-0.927-2.853-1.05l-1.4-0.145
			l-2.011,19.47l1.401,0.146c1.188,0.122,2.189-0.025,3.006-0.444c0.815-0.418,1.486-1.04,2.016-1.863
			c0.528-0.822,0.938-1.815,1.229-2.979C370.875,394.403,371.092,393.138,371.233,391.771z"/>
		<path fill="#FFFFFF" d="M379.643,407.7l3.086-29.889l15.371,1.587l-0.528,5.124l-9.991-1.031l-0.652,6.319l6.704,0.692
			l-0.521,5.037l-6.704-0.691l-0.855,8.283l10.375,1.071l-0.528,5.124L379.643,407.7z"/>
		<path fill="#FFFFFF" d="M411.752,411.016l-3.48-11.838l-1.75-0.181l-1.174,11.356l-5.38-0.556l3.086-29.889l7.961,0.821
			c2.91,0.301,5.148,1.316,6.716,3.047c1.565,1.729,2.188,4.146,1.868,7.248c-0.217,2.106-0.875,3.771-1.974,4.996
			s-2.415,2.104-3.949,2.635l3.883,12.959L411.752,411.016z M414.21,390.556c0.141-1.365-0.084-2.439-0.676-3.22
			c-0.591-0.78-1.692-1.253-3.306-1.42l-2.332-0.24l-0.86,8.326l2.63,0.271C412.41,394.557,413.925,393.317,414.21,390.556z"/>
		<path fill="#FFFFFF" d="M445.83,413.023c-1.488,1.17-3.384,1.637-5.69,1.397c-1.65-0.17-3.048-0.718-4.188-1.642
			c-1.143-0.922-2.041-2.115-2.694-3.579c-0.656-1.463-1.078-3.153-1.268-5.072c-0.19-1.918-0.175-3.945,0.045-6.08
			c0.224-2.163,0.631-4.164,1.224-6c0.592-1.838,1.367-3.412,2.322-4.724c0.956-1.312,2.086-2.302,3.393-2.974
			c1.306-0.669,2.785-0.919,4.437-0.749c1.28,0.133,2.364,0.438,3.249,0.918s1.628,1.089,2.228,1.826
			c0.601,0.738,1.072,1.593,1.418,2.563c0.347,0.97,0.604,2.012,0.778,3.123l-5.163,1.106c-0.258-1.408-0.598-2.436-1.02-3.083
			c-0.424-0.647-1.133-1.023-2.128-1.126c-1.452-0.149-2.609,0.615-3.474,2.295c-0.864,1.68-1.46,4.114-1.79,7.303
			c-0.33,3.188-0.229,5.709,0.298,7.561c0.527,1.854,1.519,2.854,2.971,3.004c0.455,0.047,0.868,0.019,1.238-0.088
			c0.37-0.104,0.723-0.307,1.056-0.603c0.332-0.298,0.661-0.702,0.987-1.216c0.326-0.513,0.675-1.166,1.045-1.963l4.408,2.438
			C448.544,410.067,447.316,411.854,445.83,413.023z"/>
		<path fill="#FFFFFF" d="M473.247,402.219c-0.223,2.163-0.624,4.163-1.203,6.003c-0.578,1.839-1.345,3.415-2.3,4.726
			c-0.955,1.312-2.101,2.302-3.436,2.969s-2.87,0.912-4.606,0.733c-1.737-0.181-3.19-0.733-4.36-1.659s-2.083-2.12-2.736-3.584
			c-0.655-1.463-1.077-3.153-1.269-5.072c-0.189-1.918-0.175-3.945,0.045-6.08c0.225-2.162,0.625-4.164,1.203-6.003
			c0.579-1.839,1.345-3.414,2.301-4.725c0.956-1.312,2.107-2.3,3.456-2.967c1.35-0.666,2.892-0.909,4.628-0.729
			c1.735,0.179,3.183,0.731,4.338,1.655c1.156,0.925,2.062,2.119,2.716,3.582c0.653,1.464,1.076,3.153,1.267,5.072
			C473.483,398.057,473.468,400.084,473.247,402.219z M467.773,401.739c0.328-3.188,0.235-5.707-0.276-7.56
			c-0.515-1.851-1.568-2.858-3.162-3.022c-1.623-0.168-2.859,0.589-3.708,2.271c-0.85,1.682-1.438,4.116-1.769,7.305
			c-0.33,3.188-0.237,5.708,0.276,7.559c0.514,1.853,1.582,2.86,3.205,3.028c1.594,0.164,2.816-0.595,3.666-2.275
			C466.854,407.362,467.444,404.928,467.773,401.739z"/>
		<path fill="#FFFFFF" d="M488.736,418.964l-4.133-13.891c-0.302-0.98-0.602-2.047-0.899-3.199
			c-0.298-1.153-0.544-2.187-0.737-3.098c-0.047,0.456-0.094,0.977-0.14,1.562c-0.046,0.584-0.095,1.19-0.146,1.819
			c-0.051,0.627-0.105,1.239-0.168,1.838c-0.062,0.597-0.115,1.125-0.163,1.579l-1.301,12.596l-4.868-0.502l3.086-29.889
			l5.381,0.555l3.898,13.651c0.124,0.474,0.264,0.991,0.422,1.555c0.157,0.563,0.314,1.14,0.469,1.729
			c0.154,0.594,0.305,1.162,0.449,1.709c0.145,0.548,0.266,1.04,0.361,1.482c0.047-0.455,0.088-0.991,0.124-1.604
			c0.035-0.615,0.079-1.244,0.131-1.886c0.052-0.644,0.103-1.264,0.15-1.861c0.047-0.601,0.097-1.142,0.146-1.625l1.278-12.383
			l4.825,0.498l-3.086,29.889L488.736,418.964z"/>
		<path fill="#FFFFFF" d="M516.34,413.672c-0.13,1.251-0.453,2.374-0.97,3.369s-1.194,1.829-2.036,2.503
			c-0.84,0.676-1.834,1.169-2.983,1.48c-1.148,0.311-2.421,0.396-3.814,0.253c-2.021-0.209-3.709-0.856-5.064-1.938
			c-1.355-1.083-2.479-2.321-3.371-3.719l4.031-3.517c0.79,1.262,1.619,2.218,2.488,2.868c0.866,0.65,1.756,1.022,2.668,1.116
			c1.109,0.115,1.972-0.09,2.587-0.616c0.615-0.523,0.974-1.284,1.077-2.278c0.088-0.854-0.157-1.683-0.736-2.488
			c-0.578-0.807-1.688-1.754-3.331-2.844c-1.052-0.684-1.986-1.367-2.808-2.057c-0.822-0.688-1.5-1.432-2.035-2.233
			c-0.537-0.803-0.92-1.684-1.152-2.641c-0.23-0.957-0.282-2.062-0.153-3.313c0.114-1.107,0.42-2.131,0.917-3.071
			c0.497-0.938,1.142-1.734,1.937-2.385c0.796-0.65,1.73-1.127,2.81-1.433c1.073-0.306,2.237-0.394,3.491-0.264
			c1.88,0.193,3.399,0.721,4.563,1.58s2.212,2.049,3.148,3.566l-3.909,3.185c-0.378-0.527-0.728-0.979-1.047-1.358
			c-0.322-0.379-0.648-0.692-0.982-0.942c-0.334-0.249-0.695-0.438-1.084-0.564c-0.391-0.128-0.842-0.217-1.354-0.27
			c-0.854-0.088-1.563,0.09-2.127,0.534c-0.563,0.443-0.883,1.035-0.96,1.773c-0.047,0.456-0.019,0.875,0.087,1.26
			c0.104,0.385,0.302,0.777,0.591,1.182c0.288,0.402,0.684,0.816,1.188,1.243c0.502,0.425,1.146,0.892,1.926,1.403
			c1.211,0.813,2.253,1.592,3.126,2.326c0.874,0.736,1.577,1.513,2.111,2.329s0.896,1.701,1.085,2.653
			C516.438,411.32,516.469,412.422,516.34,413.672z"/>
		<path fill="#FFFFFF" d="M531.941,398.396l-2.559,24.765l-5.38-0.556l2.557-24.765l-6.19-0.64l0.529-5.124l17.763,1.834
			l-0.528,5.124L531.941,398.396z"/>
		<path fill="#FFFFFF" d="M551.16,425.409l-3.482-11.839l-1.75-0.182l-1.174,11.357l-5.379-0.555l3.086-29.89l7.961,0.821
			c2.91,0.301,5.148,1.316,6.715,3.047c1.566,1.729,2.189,4.146,1.869,7.247c-0.217,2.106-0.876,3.772-1.974,4.997
			c-1.1,1.224-2.415,2.103-3.949,2.634l3.884,12.959L551.16,425.409z M553.617,404.949c0.141-1.365-0.084-2.44-0.676-3.221
			c-0.592-0.779-1.693-1.253-3.306-1.42l-2.334-0.24l-0.858,8.325l2.631,0.272C551.816,408.95,553.332,407.711,553.617,404.949z"/>
		<path fill="#FFFFFF" d="M579.053,421.471c-0.473,1.505-1.112,2.755-1.922,3.75c-0.811,0.995-1.808,1.722-2.993,2.172
			c-1.187,0.452-2.605,0.596-4.261,0.426c-1.6-0.166-2.932-0.601-3.998-1.3c-1.065-0.698-1.9-1.627-2.503-2.782
			c-0.602-1.154-0.987-2.512-1.158-4.068c-0.171-1.555-0.161-3.259,0.03-5.11l1.859-18.019l5.381,0.556l-1.861,18.02
			c-0.268,2.591-0.166,4.442,0.307,5.556c0.472,1.113,1.315,1.732,2.532,1.858c1.245,0.129,2.19-0.307,2.837-1.305
			c0.646-0.997,1.104-2.792,1.37-5.383l1.86-18.019l5.38,0.556l-1.853,17.935C579.861,418.247,579.525,419.967,579.053,421.471z"/>
		<path fill="#FFFFFF" d="M598.473,428.783c-1.485,1.171-3.383,1.637-5.688,1.397c-1.65-0.17-3.047-0.718-4.188-1.642
			c-1.142-0.922-2.04-2.115-2.693-3.579c-0.654-1.462-1.077-3.153-1.269-5.071c-0.188-1.919-0.175-3.944,0.045-6.08
			c0.226-2.162,0.631-4.164,1.226-6.001c0.592-1.838,1.365-3.411,2.32-4.723c0.956-1.312,2.086-2.303,3.394-2.975
			c1.306-0.669,2.784-0.919,4.437-0.749c1.279,0.133,2.363,0.438,3.249,0.918c0.886,0.479,1.628,1.089,2.229,1.826
			c0.6,0.738,1.072,1.593,1.418,2.563s0.604,2.012,0.779,3.123l-5.164,1.105c-0.259-1.407-0.599-2.436-1.021-3.083
			c-0.422-0.646-1.131-1.021-2.127-1.126c-1.452-0.148-2.609,0.615-3.474,2.297c-0.864,1.68-1.461,4.112-1.79,7.302
			c-0.329,3.188-0.23,5.709,0.299,7.561c0.527,1.854,1.518,2.854,2.969,3.004c0.455,0.047,0.868,0.019,1.24-0.088
			c0.369-0.104,0.721-0.307,1.055-0.603c0.332-0.296,0.661-0.702,0.988-1.215c0.325-0.513,0.674-1.166,1.043-1.964l4.408,2.439
			C601.188,425.827,599.96,427.614,598.473,428.783z"/>
		<path fill="#FFFFFF" d="M617.977,407.278l-2.557,24.765l-5.381-0.555l2.557-24.766l-6.189-0.64l0.527-5.124l17.763,1.834
			l-0.529,5.124L617.977,407.278z"/>
		<path fill="#FFFFFF" d="M625.624,433.097l3.086-29.889l5.38,0.556l-3.086,29.89L625.624,433.097z"/>
		<path fill="#FFFFFF" d="M657.061,421.196c-0.224,2.163-0.625,4.164-1.202,6.003c-0.578,1.84-1.347,3.415-2.302,4.726
			c-0.955,1.313-2.101,2.302-3.436,2.968c-1.335,0.668-2.87,0.913-4.605,0.733c-1.736-0.179-3.188-0.732-4.358-1.658
			c-1.172-0.926-2.084-2.12-2.738-3.585c-0.654-1.462-1.076-3.151-1.267-5.07c-0.191-1.92-0.177-3.945,0.044-6.08
			c0.225-2.163,0.625-4.165,1.203-6.003c0.577-1.84,1.346-3.414,2.301-4.726c0.955-1.313,2.105-2.301,3.457-2.968
			c1.348-0.665,2.891-0.908,4.627-0.729c1.735,0.181,3.182,0.731,4.339,1.655c1.155,0.926,2.061,2.12,2.716,3.583
			c0.654,1.463,1.077,3.153,1.268,5.071C657.295,417.035,657.281,419.063,657.061,421.196z M651.585,420.717
			c0.329-3.188,0.237-5.706-0.276-7.559c-0.514-1.852-1.566-2.858-3.161-3.023c-1.621-0.167-2.857,0.59-3.708,2.271
			c-0.85,1.681-1.438,4.116-1.769,7.305c-0.33,3.189-0.237,5.708,0.276,7.558c0.514,1.854,1.582,2.861,3.205,3.028
			c1.594,0.165,2.813-0.593,3.664-2.274C650.666,426.341,651.256,423.905,651.585,420.717z"/>
		<path fill="#FFFFFF" d="M672.549,437.941l-4.133-13.891c-0.302-0.979-0.602-2.047-0.898-3.2c-0.299-1.151-0.545-2.185-0.737-3.097
			c-0.047,0.456-0.095,0.978-0.141,1.563c-0.046,0.584-0.095,1.189-0.145,1.818c-0.052,0.627-0.106,1.239-0.168,1.838
			c-0.063,0.598-0.116,1.125-0.163,1.579l-1.301,12.597l-4.868-0.503l3.086-29.89l5.381,0.557l3.897,13.649
			c0.125,0.474,0.266,0.993,0.422,1.555c0.157,0.563,0.313,1.141,0.471,1.731c0.154,0.593,0.304,1.161,0.447,1.707
			c0.145,0.548,0.266,1.041,0.361,1.483c0.049-0.455,0.09-0.99,0.124-1.604c0.034-0.615,0.078-1.244,0.13-1.886
			c0.054-0.644,0.104-1.264,0.149-1.861c0.049-0.601,0.099-1.141,0.148-1.625l1.277-12.383l4.824,0.498l-3.086,29.889
			L672.549,437.941z"/>
	</g>
	<g enable-background="new    ">
		<path fill="#FFFFFF" d="M308.636,489.968c-0.866,0.682-1.971,0.953-3.314,0.814c-0.962-0.101-1.774-0.42-2.439-0.956
			c-0.665-0.538-1.188-1.233-1.569-2.086s-0.627-1.835-0.738-2.953c-0.111-1.116-0.102-2.297,0.026-3.54
			c0.13-1.26,0.367-2.426,0.713-3.496c0.345-1.07,0.795-1.987,1.352-2.751s1.215-1.341,1.976-1.731
			c0.76-0.389,1.622-0.535,2.583-0.437c0.746,0.077,1.376,0.256,1.894,0.535c0.517,0.278,0.948,0.634,1.298,1.063
			c0.349,0.431,0.624,0.928,0.826,1.492c0.201,0.566,0.353,1.172,0.453,1.819l-3.007,0.645c-0.149-0.819-0.348-1.419-0.594-1.796
			s-0.658-0.596-1.238-0.655c-0.846-0.088-1.521,0.358-2.023,1.336c-0.502,0.979-0.85,2.396-1.042,4.254
			c-0.192,1.856-0.134,3.324,0.173,4.403c0.307,1.079,0.884,1.662,1.729,1.75c0.265,0.027,0.505,0.01,0.722-0.052
			c0.215-0.063,0.42-0.178,0.614-0.352c0.193-0.173,0.385-0.408,0.576-0.707c0.189-0.299,0.393-0.68,0.607-1.145l2.567,1.421
			C310.217,488.245,309.502,489.286,308.636,489.968z"/>
		<path fill="#FFFFFF" d="M322.563,485.675c-0.112,1.095-0.332,2.057-0.66,2.885c-0.328,0.829-0.741,1.509-1.238,2.033
			c-0.498,0.527-1.063,0.909-1.698,1.146c-0.635,0.235-1.315,0.316-2.043,0.242c-0.727-0.075-1.382-0.29-1.964-0.644
			s-1.058-0.839-1.429-1.456c-0.371-0.615-0.632-1.357-0.785-2.229s-0.172-1.854-0.06-2.947c0.113-1.094,0.333-2.055,0.661-2.885
			c0.328-0.828,0.741-1.512,1.239-2.046c0.499-0.534,1.069-0.921,1.712-1.155c0.643-0.235,1.328-0.315,2.056-0.24
			c0.727,0.075,1.377,0.293,1.95,0.654c0.573,0.359,1.044,0.849,1.416,1.465c0.371,0.616,0.632,1.361,0.785,2.229
			C322.656,483.598,322.676,484.581,322.563,485.675z M319.599,485.419c0.125-1.21,0.067-2.204-0.173-2.981
			c-0.24-0.779-0.71-1.205-1.41-1.277c-0.718-0.073-1.26,0.233-1.626,0.925c-0.365,0.692-0.611,1.65-0.738,2.877
			c-0.126,1.228-0.074,2.221,0.159,2.982s0.709,1.179,1.427,1.253c0.351,0.036,0.661-0.035,0.933-0.219
			c0.272-0.182,0.501-0.445,0.689-0.796c0.187-0.35,0.343-0.76,0.469-1.232C319.451,486.477,319.542,485.967,319.599,485.419z"/>
		<path fill="#FFFFFF" d="M335.589,493.63l0.873-8.455c0.084-0.812,0.072-1.379-0.036-1.7c-0.107-0.32-0.399-0.507-0.877-0.556
			c-0.313-0.032-0.628,0.054-0.948,0.254c-0.318,0.202-0.583,0.427-0.792,0.673l-0.98,9.499l-2.959-0.306l0.873-8.455
			c0.084-0.812,0.071-1.378-0.036-1.699c-0.108-0.321-0.401-0.508-0.876-0.557c-0.313-0.032-0.628,0.054-0.948,0.255
			s-0.583,0.426-0.792,0.672l-0.98,9.499l-2.959-0.306l1.348-13.056l2.959,0.307l-0.118,0.893c0.367-0.313,0.761-0.559,1.182-0.732
			c0.421-0.175,0.846-0.239,1.276-0.194c0.796,0.082,1.4,0.278,1.813,0.589c0.411,0.312,0.711,0.694,0.898,1.148
			c0.405-0.344,0.854-0.638,1.34-0.879c0.488-0.243,1.047-0.332,1.681-0.269c0.698,0.072,1.258,0.235,1.678,0.487
			c0.419,0.254,0.732,0.597,0.94,1.027c0.208,0.432,0.327,0.95,0.357,1.558c0.029,0.606,0.005,1.291-0.073,2.054l-0.883,8.554
			L335.589,493.63z"/>
		<path fill="#FFFFFF" d="M341.259,494.215l1.349-13.055l2.959,0.306l-1.349,13.056L341.259,494.215z M346.263,478.37
			c-0.053,0.515-0.28,0.935-0.684,1.261c-0.402,0.328-0.861,0.464-1.375,0.411s-0.935-0.28-1.261-0.683
			c-0.327-0.403-0.464-0.859-0.411-1.374s0.281-0.936,0.683-1.262c0.402-0.327,0.86-0.465,1.375-0.411
			c0.515,0.053,0.935,0.28,1.261,0.684C346.178,477.399,346.316,477.856,346.263,478.37z"/>
		<path fill="#FFFFFF" d="M352.972,495.424l0.873-8.455c0.084-0.812,0.067-1.378-0.048-1.7c-0.117-0.322-0.438-0.511-0.964-0.564
			c-0.329-0.034-0.666,0.05-1.01,0.248c-0.345,0.199-0.621,0.423-0.829,0.669l-0.981,9.498l-2.959-0.305l1.349-13.056l2.959,0.306
			l-0.109,0.895c0.368-0.314,0.768-0.559,1.197-0.732c0.429-0.173,0.885-0.234,1.367-0.186c0.697,0.072,1.261,0.234,1.688,0.488
			s0.753,0.599,0.979,1.03c0.224,0.435,0.354,0.954,0.394,1.562c0.038,0.607,0.017,1.293-0.063,2.056l-0.883,8.555L352.972,495.424z
			"/>
		<path fill="#FFFFFF" d="M367.483,495.566c-0.102,0.978-0.271,1.81-0.512,2.497c-0.239,0.687-0.603,1.254-1.087,1.696
			c-0.483,0.443-1.109,0.773-1.875,0.988c-0.765,0.214-1.715,0.338-2.849,0.372l-0.577-2.271c0.784-0.069,1.417-0.159,1.901-0.269
			c0.482-0.11,0.863-0.279,1.141-0.511c0.277-0.232,0.473-0.534,0.587-0.907c0.115-0.374,0.203-0.858,0.266-1.456
			c-0.368,0.313-0.778,0.558-1.231,0.729c-0.454,0.171-0.92,0.231-1.401,0.184c-1.227-0.127-2.109-0.776-2.65-1.946
			c-0.542-1.17-0.692-2.916-0.452-5.236c0.103-0.994,0.276-1.901,0.52-2.724c0.244-0.821,0.56-1.514,0.943-2.075
			c0.385-0.563,0.852-0.989,1.401-1.276c0.549-0.285,1.18-0.395,1.893-0.319c0.431,0.044,0.836,0.179,1.215,0.402
			c0.379,0.223,0.694,0.498,0.945,0.825l0.074-0.721l2.959,0.306L367.483,495.566z M365.364,487.128
			c-0.172-0.302-0.404-0.586-0.697-0.851c-0.293-0.266-0.649-0.419-1.067-0.463c-0.267-0.027-0.499,0.017-0.695,0.13
			c-0.198,0.112-0.371,0.317-0.52,0.611c-0.148,0.296-0.278,0.693-0.39,1.191c-0.11,0.5-0.205,1.132-0.284,1.893
			c-0.148,1.443-0.157,2.507-0.025,3.19c0.133,0.683,0.508,1.058,1.125,1.122c0.367,0.038,0.73-0.043,1.089-0.24
			c0.357-0.198,0.643-0.42,0.854-0.666L365.364,487.128z"/>
		<path fill="#FFFFFF" d="M385.882,494.081c-0.075,0.729-0.263,1.382-0.563,1.962c-0.302,0.58-0.696,1.065-1.186,1.458
			c-0.49,0.393-1.068,0.68-1.739,0.861c-0.669,0.183-1.409,0.23-2.222,0.146c-1.177-0.121-2.16-0.498-2.95-1.129
			c-0.789-0.63-1.442-1.352-1.962-2.166l2.349-2.048c0.46,0.735,0.942,1.292,1.447,1.671s1.023,0.595,1.555,0.649
			c0.646,0.066,1.147-0.053,1.507-0.358c0.356-0.306,0.566-0.748,0.627-1.327c0.051-0.497-0.092-0.979-0.428-1.449
			c-0.338-0.469-0.984-1.021-1.94-1.655c-0.612-0.396-1.158-0.797-1.635-1.196c-0.479-0.4-0.874-0.834-1.187-1.302
			c-0.312-0.47-0.536-0.98-0.67-1.538c-0.136-0.558-0.166-1.2-0.09-1.929c0.067-0.646,0.245-1.241,0.534-1.788
			c0.289-0.549,0.665-1.012,1.128-1.391c0.462-0.378,1.007-0.656,1.634-0.834c0.627-0.179,1.305-0.229,2.034-0.153
			c1.094,0.111,1.979,0.42,2.657,0.921c0.677,0.501,1.288,1.191,1.834,2.076l-2.278,1.855c-0.219-0.309-0.423-0.572-0.609-0.793
			c-0.187-0.22-0.377-0.402-0.57-0.549c-0.195-0.146-0.405-0.255-0.632-0.329c-0.228-0.074-0.49-0.126-0.788-0.156
			c-0.498-0.052-0.91,0.052-1.239,0.313c-0.328,0.258-0.514,0.603-0.559,1.032c-0.027,0.267-0.013,0.51,0.05,0.732
			c0.061,0.225,0.175,0.454,0.344,0.688c0.168,0.234,0.399,0.477,0.692,0.725c0.292,0.247,0.667,0.521,1.121,0.816
			c0.705,0.476,1.313,0.928,1.82,1.355c0.509,0.429,0.918,0.882,1.23,1.355c0.311,0.477,0.521,0.991,0.631,1.546
			C385.94,492.711,385.958,493.353,385.882,494.081z"/>
		<path fill="#FFFFFF" d="M397.537,493.416c-0.113,1.095-0.333,2.056-0.661,2.885c-0.328,0.828-0.741,1.507-1.238,2.033
			c-0.497,0.527-1.063,0.909-1.697,1.145c-0.635,0.236-1.315,0.317-2.044,0.242c-0.728-0.074-1.382-0.29-1.964-0.644
			s-1.058-0.838-1.429-1.455c-0.371-0.615-0.632-1.359-0.785-2.229c-0.152-0.871-0.172-1.853-0.059-2.946
			c0.113-1.095,0.333-2.056,0.661-2.886c0.328-0.828,0.741-1.511,1.238-2.047c0.499-0.532,1.069-0.92,1.713-1.153
			c0.642-0.235,1.327-0.316,2.055-0.241c0.727,0.075,1.377,0.294,1.951,0.655c0.572,0.358,1.044,0.849,1.416,1.464
			c0.371,0.617,0.632,1.36,0.784,2.23S397.65,492.322,397.537,493.416z M394.574,493.16c0.125-1.21,0.065-2.204-0.173-2.983
			c-0.24-0.777-0.71-1.204-1.41-1.275c-0.718-0.074-1.26,0.233-1.626,0.925c-0.366,0.69-0.612,1.649-0.739,2.877
			c-0.126,1.227-0.074,2.221,0.16,2.981c0.231,0.762,0.709,1.18,1.426,1.253c0.351,0.036,0.661-0.035,0.933-0.218
			c0.271-0.182,0.502-0.446,0.689-0.797c0.188-0.349,0.343-0.759,0.469-1.231C394.426,494.218,394.517,493.708,394.574,493.16z"/>
		<path fill="#FFFFFF" d="M409.175,494.617c-0.113,1.095-0.333,2.056-0.661,2.885s-0.74,1.508-1.237,2.034s-1.063,0.908-1.698,1.144
			c-0.634,0.236-1.315,0.317-2.043,0.242c-0.729-0.075-1.382-0.29-1.964-0.643c-0.582-0.354-1.059-0.839-1.43-1.455
			c-0.37-0.616-0.632-1.359-0.784-2.229c-0.153-0.871-0.173-1.853-0.06-2.946c0.113-1.095,0.333-2.056,0.661-2.886
			c0.328-0.828,0.741-1.51,1.239-2.046c0.499-0.534,1.068-0.92,1.712-1.154c0.642-0.235,1.328-0.315,2.055-0.24
			c0.728,0.075,1.377,0.293,1.951,0.653c0.573,0.36,1.044,0.85,1.416,1.466c0.371,0.615,0.632,1.36,0.785,2.229
			C409.269,492.54,409.288,493.523,409.175,494.617z M406.211,494.361c0.125-1.21,0.066-2.204-0.173-2.982
			c-0.24-0.779-0.71-1.204-1.41-1.276c-0.718-0.073-1.26,0.233-1.626,0.925s-0.612,1.649-0.739,2.877
			c-0.126,1.227-0.073,2.221,0.16,2.981c0.232,0.763,0.709,1.18,1.426,1.253c0.352,0.036,0.661-0.035,0.934-0.218
			c0.271-0.181,0.501-0.446,0.688-0.796s0.344-0.76,0.47-1.233C406.063,495.419,406.155,494.909,406.211,494.361z"/>
		<path fill="#FFFFFF" d="M416.681,502.002l0.873-8.455c0.084-0.812,0.067-1.379-0.048-1.7c-0.117-0.322-0.438-0.512-0.963-0.564
			c-0.329-0.034-0.666,0.05-1.011,0.248s-0.621,0.422-0.829,0.668l-0.981,9.499l-2.959-0.307l1.349-13.055l2.959,0.306l-0.109,0.895
			c0.369-0.313,0.768-0.559,1.197-0.731s0.885-0.234,1.368-0.186c0.697,0.072,1.261,0.234,1.688,0.488s0.753,0.599,0.978,1.03
			c0.225,0.435,0.354,0.953,0.394,1.562c0.038,0.607,0.018,1.293-0.061,2.056l-0.884,8.554L416.681,502.002z"/>
		<path fill="#FFFFFF" d="M426.328,501.314c-0.057,0.547-0.287,0.987-0.69,1.323c-0.402,0.335-0.887,0.475-1.45,0.416
			c-0.564-0.059-1.01-0.293-1.335-0.704c-0.325-0.409-0.461-0.89-0.404-1.437c0.058-0.563,0.289-1.014,0.691-1.351
			c0.403-0.335,0.887-0.474,1.45-0.414c0.563,0.058,1.009,0.291,1.335,0.702C426.252,500.263,426.386,500.751,426.328,501.314z"/>
		<path fill="#FFFFFF" d="M433.042,502.007c-0.057,0.547-0.287,0.989-0.69,1.325c-0.402,0.335-0.887,0.474-1.449,0.415
			c-0.564-0.058-1.01-0.292-1.334-0.703c-0.326-0.41-0.461-0.891-0.405-1.438c0.058-0.563,0.289-1.014,0.691-1.35
			c0.403-0.335,0.887-0.474,1.45-0.416c0.563,0.06,1.008,0.293,1.334,0.704S433.1,501.444,433.042,502.007z"/>
		<path fill="#FFFFFF" d="M439.756,502.7c-0.057,0.547-0.287,0.989-0.689,1.324c-0.403,0.336-0.888,0.475-1.451,0.416
			s-1.008-0.292-1.334-0.703c-0.326-0.41-0.461-0.892-0.405-1.438c0.058-0.563,0.289-1.014,0.692-1.349
			c0.402-0.335,0.886-0.475,1.449-0.416s1.01,0.293,1.335,0.704C439.68,501.649,439.814,502.137,439.756,502.7z"/>
	</g>
	<g>
		<g>
			
				<rect x="497.688" y="839.046" transform="matrix(0.9272 -0.3745 0.3745 0.9272 -280.0297 248.3525)" fill="#3E4870" width="2.652" height="11.333"/>
			<g>
				<path fill="#3E4870" d="M471.346,832.865c0.419,2.521,1.657,6.781,1.612,12.249c-0.07,8.433,1.541,16.435,1.171,21.844
					c-0.259,3.788-1.029,6.229-6.009,6.993c-8.843,1.354-14.354-7.731-11.93-19.242
					C458.611,843.199,467.516,831.917,471.346,832.865z"/>
				<path fill="#3E4870" d="M476.415,864.193c9.261-1.556,17.1-0.832,17.509,1.607c0.409,2.441-6.765,5.682-16.023,7.232
					c-9.264,1.552-15.86,1.512-16.271-0.933C461.219,869.664,467.154,865.746,476.415,864.193z"/>
				<path fill="#4A301B" d="M490.368,887.079c-3.632-1.666-7.151-1.527-7.86,0.313c-0.708,1.839,1.661,4.683,5.294,6.351
					s7.153,1.524,7.861-0.313C496.372,891.588,494.002,888.747,490.368,887.079z"/>
				<path fill="#3E4870" d="M484.788,875.219c2.18-6.599,5.754-11.352,7.979-10.615c2.229,0.737,2.268,6.687,0.088,13.282
					c-1.161,3.517-1.538,7.841-2.518,9.06c-0.854,1.064-7.062,0.844-7.553-0.324C481.809,884.287,483.405,879.404,484.788,875.219z"
					/>
				<path fill="#FFD7B7" d="M471.693,832.542c0.229,1.391,0.462,3.411,0.823,5.841c-2.757-0.118-4.993-1.526-6.054-3.029
					C468.509,833.32,470.407,832.223,471.693,832.542z"/>
				<path fill="#3E4870" d="M474.549,842.832c4.657,3.17,7.805,6.658,7.031,7.795c-0.772,1.136-5.173-0.512-9.83-3.68
					c-4.657-3.172-9.596-4.638-7.032-7.796C467.283,835.992,469.893,839.664,474.549,842.832z"/>
				<path fill="#FFD7B7" d="M498.306,848.951c2.418-0.203,4.237-1.326,4.063-2.511c-0.172-1.188-2.274-1.979-4.692-1.775
					c-2.419,0.203-4.235,1.326-4.063,2.51S495.888,849.154,498.306,848.951z"/>
				<circle fill="#FFD7B7" cx="473.807" cy="825.928" r="10.011"/>
				<path fill="#4A301B" d="M472.152,816.055c5.454-0.916,10.612,2.766,11.526,8.22c0.045,0.271,0.079,0.536,0.104,0.807
					c-1.988,0.905-4.653,2.433-10.788,0.984c-3.728-3.021-3.271,2.529-2.575,3.285c1.1,1.199-5.178,9.021-6.919-1.357
					C462.586,822.536,466.7,816.969,472.152,816.055z"/>
				<path fill="#3E4870" d="M472.068,815.388c5.828-0.977,11.348,2.881,12.459,8.654l-19.975-3.54
					C466.136,817.878,468.81,815.934,472.068,815.388z"/>
				<polygon fill="#3E4870" points="464.02,820.243 486.999,824.314 486.829,825.235 463.852,821.164 				"/>
				<path opacity="0.2" fill="#FFFFFF" enable-background="new    " d="M472.302,816.464c4.717-0.792,9.209,1.938,10.796,6.271
					c-2.144-3.938-6.609-6.271-11.276-5.487c-2.087,0.35-3.936,1.273-5.402,2.588C467.861,818.105,469.905,816.863,472.302,816.464z
					"/>
				<path fill="#3E4870" d="M488.231,850.64c-4.807,1.01-8.897,0.876-9.146-0.297c-0.247-1.171,4.448-3.146,8.252-3.944
					c3.804-0.8,5.133-0.938,6.804-0.842c0.489,0.029,1.188,3.047,0.729,3.281C493.288,849.645,490.973,850.065,488.231,850.64z"/>
				<g>
					<path fill="#3E4870" d="M473.511,841.591c4.693,1.913,8.119,4.394,7.652,5.537c-0.466,1.144-4.648,0.521-9.343-1.392
						c-4.692-1.912-9.315-2.271-7.652-5.535C465.83,836.938,468.817,839.679,473.511,841.591z"/>
					<path fill="#FFD7B7" d="M495.566,842.507c2.089-0.634,3.479-1.965,3.103-2.974c-0.376-1.01-2.375-1.314-4.464-0.684
						c-2.089,0.634-3.479,1.966-3.104,2.976C491.477,842.836,493.476,843.14,495.566,842.507z"/>
					<path fill="#3E4870" d="M487.018,845.888c-4.035,1.79-7.664,2.443-8.101,1.459c-0.437-0.981,3.323-3.604,6.52-5.024
						c3.197-1.416,4.343-1.787,5.829-2.019c0.438-0.063,1.615,2.456,1.258,2.749C491.28,844.06,489.322,844.867,487.018,845.888z"/>
				</g>
			</g>
			<g>
				<path fill="#1F273A" d="M499.222,942.51v-9.572c7.05,0,12.769-5.717,12.769-12.769c0-7.049-5.718-12.765-12.769-12.765v-60.173
					h7.918l-7.918-31.692v-13.756h6.394l11.354,45.448h5.396h16.531c7.474,0,13.587,6.111,13.587,13.586v37.013h18.557v29.109
					h-50.522C517.649,935.97,509.199,942.51,499.222,942.51z M327.213,907.404c7.05,0,12.766,5.717,12.766,12.766
					c0,7.052-5.716,12.768-12.766,12.768v9.573c9.979,0,18.426-6.54,21.294-15.567h129.419c2.868,9.027,11.318,15.567,21.295,15.567
					v-9.573c-7.051,0-12.766-5.716-12.766-12.768c0-7.049,5.714-12.766,12.766-12.766v-60.172h-40.625v-34.211h39.996l0.629,2.519
					v-13.756h-53.26v45.448v22.771v27.828H327.213V907.404z M327.213,932.938c-7.051,0-12.767-5.717-12.767-12.769
					c0-7.049,5.715-12.766,12.767-12.766v-9.573h-42.365v29.109h21.069c2.868,9.027,11.317,15.567,21.295,15.567L327.213,932.938
					L327.213,932.938z"/>
				<polygon fill="#3E4870" points="438.86,789.113 475.787,789.113 475.787,776.442 438.86,776.442 429.567,776.442 
					416.782,801.783 284.848,801.783 311.833,889.82 327.888,889.82 327.888,826.729 349.5,889.82 364.479,889.82 364.479,826.729 
					386.091,889.82 401.071,889.82 401.071,826.729 422.682,889.82 438.86,889.82 438.86,826.729 438.86,823.415 438.86,801.783 
									"/>
			</g>
		</g>
		<path fill="#ECF0F1" d="M327.213,934.7c8.003,0,14.53-6.526,14.53-14.531c0-8.003-6.526-14.528-14.53-14.528
			s-14.531,6.525-14.531,14.528C312.683,928.174,319.209,934.7,327.213,934.7z"/>
		<path fill="#ECF0F1" d="M498.995,934.7c8.002,0,14.531-6.526,14.531-14.531c0-8.003-6.528-14.528-14.531-14.528
			s-14.531,6.525-14.531,14.528C484.464,928.174,490.992,934.7,498.995,934.7z"/>
	</g>
	<polygon fill="#1F273A" points="741.854,734.063 749.306,724.52 771.091,729.198 772.943,739.333 833.29,807.017 751.555,838.924 
		746.136,845.388 724.351,840.708 722.021,832.876 701.916,774.896 	"/>
	<g>
		<g>
			
				<rect x="688.3" y="773.807" transform="matrix(0.21 -0.9777 0.9777 0.21 -176.7494 1351.1511)" fill="#3E4870" width="118.836" height="22.282"/>
			<polygon fill="#3E4870" points="722.021,832.876 743.408,733.285 706.94,751.499 696.245,801.294 			"/>
			<polygon fill="#3E4870" points="751.555,838.924 772.943,739.333 839.178,779.604 828.484,829.398 			"/>
			<polygon fill="#1F273A" points="843.916,875.965 843.916,781.447 828.247,848.656 			"/>
			
				<rect x="643.412" y="791.743" transform="matrix(-0.927 -0.375 0.375 -0.927 943.3752 1776.902)" fill="#3E4870" width="2.305" height="9.851"/>
			<g>
				<path fill="#3E4870" d="M666.945,787.491c-0.395,2.353-1.545,6.323-1.503,11.419c0.063,7.861-1.438,15.322-1.095,20.364
					c0.239,3.529,0.959,5.81,5.604,6.521c8.243,1.269,13.378-7.21,11.121-17.938C678.818,797.124,670.516,786.605,666.945,787.491z"
					/>
				<path fill="#3E4870" d="M662.219,816.697c-8.635-1.447-15.939-0.775-16.322,1.502c-0.384,2.272,6.309,5.295,14.941,6.741
					c8.633,1.445,14.786,1.408,15.167-0.866C676.387,821.798,670.854,818.146,662.219,816.697z"/>
				<path fill="#4A301B" d="M649.21,838.036c3.387-1.556,6.668-1.427,7.329,0.29c0.661,1.714-1.55,4.363-4.938,5.918
					c-3.387,1.555-6.667,1.426-7.325-0.29C643.613,842.238,645.823,839.589,649.21,838.036z"/>
				<path fill="#3E4870" d="M654.414,826.979c-2.032-6.15-5.365-10.584-7.442-9.896c-2.077,0.685-2.109,6.229-0.08,12.381
					c1.083,3.275,1.437,7.313,2.348,8.446c0.797,0.993,6.585,0.784,7.042-0.308C657.19,835.433,655.702,830.879,654.414,826.979z"/>
				<path fill="#FFD7B7" d="M666.621,787.188c-0.216,1.3-0.43,3.186-0.771,5.445c2.571-0.107,4.659-1.425,5.646-2.822
					C669.591,787.914,667.82,786.892,666.621,787.188z"/>
				<path fill="#3E4870" d="M663.959,796.784c-4.341,2.952-7.276,6.207-6.554,7.266c0.719,1.061,4.818-0.477,9.164-3.432
					c4.34-2.955,8.943-4.319,6.556-7.269C670.732,790.404,668.301,793.829,663.959,796.784z"/>
				<path fill="#FFD7B7" d="M641.81,802.488c-2.255-0.188-3.947-1.237-3.784-2.342c0.158-1.104,2.117-1.847,4.375-1.655
					c2.256,0.188,3.947,1.235,3.785,2.342C646.024,801.938,644.064,802.678,641.81,802.488z"/>
				<circle fill="#FFD7B7" cx="664.651" cy="781.021" r="9.333"/>
				<path fill="#4A301B" d="M666.193,771.817c-5.084-0.854-9.896,2.574-10.748,7.658c-0.044,0.253-0.075,0.503-0.099,0.753
					c1.854,0.849,4.341,2.271,10.062,0.921c3.472-2.815,3.046,2.357,2.397,3.063c-1.022,1.119,4.828,8.41,6.45-1.27
					C675.111,777.86,671.277,772.669,666.193,771.817z"/>
				<path fill="#3E4870" d="M666.271,771.195c-5.436-0.911-10.579,2.688-11.615,8.065l18.62-3.299
					C671.802,773.518,669.31,771.705,666.271,771.195z"/>
				<polygon fill="#3E4870" points="673.775,775.722 652.354,779.519 652.511,780.375 673.933,776.579 				"/>
				<path opacity="0.2" fill="#FFFFFF" enable-background="new    " d="M666.054,772.198c-4.396-0.738-8.585,1.806-10.063,5.846
					c1.998-3.669,6.163-5.845,10.516-5.116c1.944,0.327,3.665,1.189,5.035,2.413C670.194,773.729,668.288,772.572,666.054,772.198z"
					/>
				<path fill="#3E4870" d="M651.203,804.063c4.479,0.939,8.294,0.816,8.521-0.274c0.229-1.092-4.146-2.938-7.692-3.68
					c-3.547-0.744-4.786-0.872-6.342-0.782c-0.457,0.024-1.106,2.839-0.679,3.059C646.488,803.134,648.646,803.525,651.203,804.063z
					"/>
				<g>
					<path fill="#3E4870" d="M664.927,795.625c-4.374,1.783-7.566,4.094-7.135,5.162c0.436,1.064,4.334,0.486,8.71-1.296
						c4.376-1.784,8.686-2.118,7.136-5.161S669.303,793.842,664.927,795.625z"/>
					<path fill="#FFD7B7" d="M644.364,796.479c-1.947-0.591-3.243-1.83-2.896-2.771c0.354-0.941,2.213-1.226,4.161-0.634
						c1.95,0.59,3.244,1.83,2.896,2.771C648.176,796.786,646.313,797.07,644.364,796.479z"/>
					<path fill="#3E4870" d="M652.335,799.631c3.764,1.669,7.144,2.278,7.551,1.36c0.408-0.919-3.098-3.364-6.078-4.688
						c-2.979-1.319-4.047-1.668-5.434-1.881c-0.407-0.063-1.507,2.29-1.17,2.563C648.36,797.928,650.186,798.678,652.335,799.631z"
						/>
				</g>
			</g>
			<path fill="#1F273A" d="M804.175,890.572c9.359,0,17.286-6.141,19.979-14.607h19.766v-27.309h-39.741v8.979
				c6.613,0,11.978,5.36,11.978,11.977c0,6.613-5.361,11.978-11.978,11.978L804.175,890.572L804.175,890.572z M784.198,875.965
				c2.688,8.47,10.614,14.607,19.977,14.607v-8.982c-6.614,0-11.977-5.361-11.977-11.977c0-6.616,5.359-11.978,11.977-11.978v-8.979
				H692.777v-26.104v-21.357v-42.636h-34.622v10.543h22.769v32.093h-22.769v82.694c2.086-2.237,3.686-4.936,4.637-7.924H784.198
				L784.198,875.965z M658.155,758.559h-15.34v12.901l0.589-2.359h14.751V758.559L658.155,758.559z M642.815,890.572
				c6.059,0,11.515-2.573,15.34-6.687v-82.694h-15.34v56.444c6.611,0,11.976,5.36,11.976,11.977c0,6.614-5.361,11.978-11.976,11.978
				V890.572z M642.815,758.559h-5.995l-10.652,42.636h-20.571c-7.009,0-12.74,5.732-12.74,12.744v34.72h-17.408v27.31h47.394
				c2.69,8.471,10.616,14.606,19.979,14.606v-8.981c-6.614,0-11.979-5.36-11.979-11.978c0-6.614,5.361-11.977,11.979-11.977v-56.444
				h-7.432l7.432-29.731V758.56L642.815,758.559L642.815,758.559z"/>
		</g>
		<path fill="#ECF0F1" d="M642.841,882.628c7.19,0,13.06-5.866,13.06-13.056c0-7.192-5.866-13.061-13.06-13.061
			c-7.188,0-13.057,5.865-13.057,13.061C629.784,876.762,635.649,882.628,642.841,882.628z"/>
		<path fill="#ECF0F1" d="M804.087,882.628c7.191,0,13.058-5.866,13.058-13.056c0-7.192-5.863-13.061-13.058-13.061
			s-13.056,5.865-13.056,13.061C791.031,876.762,796.896,882.628,804.087,882.628z"/>
	</g>
	<g>
		<rect x="189.447" y="869.063" fill="#1F273A" width="61.584" height="7.82"/>
		<g>
			<rect x="196.535" y="768.866" fill="#1F273A" width="7.82" height="100.194"/>
			<rect x="236.125" y="768.866" fill="#1F273A" width="7.82" height="100.194"/>
		</g>
		<rect x="196.534" y="761.047" fill="#1F273A" width="47.411" height="7.819"/>
		<g>
			<rect x="205.004" y="246.133" fill="#1F273A" width="7.82" height="514.914"/>
			<rect x="227.654" y="246.133" fill="#1F273A" width="7.82" height="514.914"/>
		</g>
		<polygon fill="#1F273A" points="227.654,246.133 220.239,210.567 212.825,246.133 205.004,246.133 214.574,200.229 
			225.904,200.229 235.474,246.133 		"/>
		<g>
			<polygon fill="#1F273A" points="587.334,246.697 228.603,324.117 230.583,331.683 589.314,254.263 			"/>
			
				<rect x="226.048" y="299.884" transform="matrix(-0.9674 0.2531 -0.2531 -0.9674 885.5685 493.6606)" fill="#1F273A" width="369.963" height="7.821"/>
		</g>
		<g>
			<polygon fill="#1F273A" points="69.693,382.177 207.283,329.113 209.262,336.679 71.673,389.742 			"/>
			
				<rect x="70.073" y="370.66" transform="matrix(0.9674 -0.2534 0.2534 0.9674 -90.3224 47.8531)" fill="#1F273A" width="141.077" height="7.822"/>
		</g>
		<rect x="69.693" y="382.177" fill="#1F273A" width="30.682" height="51.254"/>
		<g>
			<polygon fill="#1F273A" points="221.738,869.063 236.124,853.381 236.124,841.813 211.125,869.063 			"/>
			<polygon fill="#1F273A" points="204.355,857.88 236.124,823.249 236.124,811.681 204.355,846.313 			"/>
			<polygon fill="#1F273A" points="204.355,827.747 236.124,793.117 236.124,781.548 204.355,816.181 			"/>
			<polygon fill="#1F273A" points="204.355,797.615 230.728,768.866 220.116,768.866 204.355,786.048 			"/>
		</g>
		<path fill="#1F273A" d="M260.333,563.559h31.866V426.457h-31.866v6.077h24.857v124.948h-24.857V563.559z M205.004,563.559h55.328
			v-6.075h-24.858V432.534h24.858v-6.077h-55.328V563.559z"/>
		<rect x="69.693" y="411.197" fill="#ECF0F1" width="30.682" height="11.117"/>
		<g>
			<path fill="#1F273A" d="M583.145,254.378h-3.808v244.287h3.808V254.378L583.145,254.378z M570.296,254.378h-3.807v244.287h3.808
				L570.296,254.378z"/>
			<rect x="559.476" y="490.005" fill="#1F273A" width="30.686" height="51.254"/>
			<rect x="572.42" y="539.499" fill="#1F273A" width="3.808" height="15.496"/>
			<path fill="#1F273A" d="M574.323,554.561c8.745,0,15.835,7.092,15.835,15.839c0,8.742-7.09,15.834-15.835,15.834
				c-8.746,0-15.835-7.092-15.835-15.834h3.498c0,6.813,5.521,12.336,12.337,12.336c6.813,0,12.337-5.522,12.337-12.336
				c0-6.814-5.523-12.341-12.337-12.341c-0.648,0-1.283,0.053-1.903,0.146v-3.53C573.044,554.6,573.679,554.561,574.323,554.561z"/>
			<rect x="559.476" y="519.025" fill="#ECF0F1" width="30.686" height="11.115"/>
		</g>
		<rect x="205.004" y="426.457" fill="#1F273A" width="30.47" height="137.102"/>
		<rect x="222.81" y="461.325" fill="#ECF0F1" width="7.594" height="15.146"/>
		<rect x="222.81" y="481.425" fill="#ECF0F1" width="7.594" height="15.147"/>
		<rect x="235.474" y="504.65" fill="#1F273A" width="52.635" height="6.075"/>
		<rect x="560.333" y="260.761" fill="#1F273A" width="30.683" height="51.254"/>
		<rect x="560.333" y="289.782" fill="#ECF0F1" width="30.683" height="11.117"/>
		<polygon fill="#FFFFFF" points="554.748,570.776 567.651,572.043 568.021,565.527 555.556,564 		"/>
	</g>
</g>
<g>
	<g>
		<g>
			<g>
				<path fill="#1F273A" d="M69.693,77.093v68.343c39.784,14.053,76.449-14.05,116.236,0V77.093
					c-39.786-14.051-76.451,14.057-115.733,0H69.693z"/>
			</g>
		</g>
	</g>
	<g>
		<g>
			<g>
				<g>
					<polygon fill="#ED2048" points="152.415,112.401 120.714,94.099 120.714,130.704 					"/>
				</g>
			</g>
			<g>
				<polygon fill="#ED2048" points="109.011,122.33 109.958,125.242 113.021,125.242 110.542,127.474 111.49,130.602 
					109.011,128.908 106.533,130.765 107.48,127.446 105.001,125.242 108.064,125.242 				"/>
			</g>
			<g>
				<polygon fill="#ED2048" points="109.011,93.783 109.958,96.696 113.021,96.696 110.542,98.927 111.49,102.056 109.011,100.361 
					106.533,102.218 107.48,98.9 105.001,96.696 108.064,96.696 				"/>
			</g>
			<g>
				<polygon fill="#ED2048" points="109.011,107.806 109.958,110.718 113.021,110.718 110.542,112.95 111.49,116.079 
					109.011,114.384 106.533,116.241 107.48,112.923 105.001,110.718 108.064,110.718 				"/>
			</g>
		</g>
	</g>
	<g>
		<path fill="#1F273A" d="M75.199,189.155c0,0.044-0.004,0.083-0.013,0.118c-0.008,0.034-0.019,0.071-0.033,0.104
			c-0.012,0.036-0.041,0.075-0.084,0.118l-0.746,0.746l-0.04,0.028l1.337,3.287c0.016,0.043,0.001,0.085-0.046,0.125
			c-0.049,0.039-0.095,0.059-0.137,0.059h-1.755c-0.052,0-0.101-0.021-0.144-0.059c-0.043-0.04-0.075-0.082-0.093-0.125
			l-1.283-3.183h-0.603v3.183c0,0.043-0.016,0.085-0.053,0.125c-0.034,0.039-0.078,0.059-0.13,0.059h-1.559
			c-0.044,0-0.085-0.021-0.124-0.059c-0.04-0.04-0.059-0.082-0.059-0.125v-8.788c0-0.052,0.019-0.095,0.059-0.131
			c0.039-0.034,0.08-0.052,0.124-0.052h4.166c0.033,0,0.07,0.004,0.104,0.012c0.035,0.01,0.073,0.02,0.112,0.032
			c0.039,0.014,0.08,0.043,0.124,0.086l0.746,0.747c0.043,0.043,0.072,0.087,0.084,0.13c0.014,0.045,0.025,0.083,0.033,0.119
			c0.009,0.044,0.013,0.084,0.013,0.118V189.155z M71.558,188.46h1.375c0.033,0,0.066-0.013,0.091-0.039l0.21-0.209
			c0.027-0.026,0.039-0.048,0.039-0.065v-0.039v-1.232v-0.024c0-0.027-0.012-0.053-0.039-0.08l-0.21-0.21
			c-0.025-0.024-0.053-0.037-0.078-0.037H72.92h-1.362V188.46z"/>
		<path fill="#1F273A" d="M87.771,188.199h2.318c0.121,0,0.183,0.062,0.183,0.183v1.56c0,0.122-0.062,0.184-0.183,0.184h-2.318
			v1.688h3.024c0.045,0,0.086,0.018,0.125,0.053c0.041,0.034,0.059,0.078,0.059,0.131v1.558c0,0.053-0.018,0.096-0.059,0.131
			c-0.038,0.035-0.08,0.053-0.125,0.053h-4.766c-0.123,0-0.183-0.063-0.183-0.184v-8.788c0-0.122,0.06-0.182,0.183-0.182h4.767
			c0.045,0,0.086,0.017,0.125,0.052c0.041,0.036,0.059,0.079,0.059,0.131v1.559c0,0.052-0.018,0.097-0.059,0.131
			c-0.038,0.035-0.08,0.052-0.125,0.052h-3.024L87.771,188.199L87.771,188.199z"/>
		<path fill="#1F273A" d="M106.978,189.142l-0.012,0.014h0.012c0,0.043-0.004,0.082-0.012,0.117
			c-0.018,0.079-0.061,0.153-0.131,0.222l-0.734,0.747c-0.071,0.07-0.149,0.114-0.236,0.13c-0.035,0.01-0.07,0.01-0.104,0h-2.424
			v3.182c0,0.045-0.019,0.086-0.059,0.125c-0.039,0.039-0.084,0.059-0.137,0.059h-1.545c-0.052,0-0.095-0.021-0.131-0.059
			c-0.034-0.039-0.052-0.08-0.052-0.125v-8.788c0-0.12,0.061-0.182,0.183-0.182h4.165c0.035,0,0.069,0.004,0.104,0.012
			c0.035,0.009,0.072,0.019,0.111,0.032c0.038,0.014,0.08,0.043,0.125,0.086l0.734,0.747c0.07,0.069,0.113,0.147,0.131,0.235
			c0.009,0.035,0.012,0.071,0.012,0.105V189.142L106.978,189.142z M103.336,188.447h1.35h0.027c0.025,0,0.052-0.012,0.077-0.039
			l0.223-0.207c0.008-0.018,0.018-0.028,0.026-0.033c0.009-0.004,0.013-0.014,0.013-0.031v-0.04v-1.223v-0.025
			c0-0.009-0.005-0.018-0.013-0.027c-0.008-0.009-0.018-0.021-0.026-0.038l-0.223-0.222c-0.016-0.007-0.032-0.016-0.046-0.024
			c-0.013-0.009-0.024-0.014-0.032-0.014h-0.027h-1.35L103.336,188.447L103.336,188.447z"/>
		<path fill="#1F273A" d="M122.892,192.52c0,0.044-0.004,0.083-0.013,0.118c-0.008,0.036-0.02,0.07-0.032,0.105
			c-0.014,0.034-0.042,0.074-0.086,0.117l-0.735,0.734c-0.069,0.07-0.149,0.113-0.236,0.132c-0.035,0.008-0.071,0.013-0.106,0.013
			l-3.4-0.013c-0.043,0.008-0.083,0.008-0.117,0c-0.078-0.019-0.154-0.062-0.224-0.132l-0.735-0.734
			c-0.07-0.069-0.113-0.144-0.131-0.222c-0.008-0.035-0.012-0.074-0.012-0.118h0.012c0-0.009-0.002-0.013-0.002-0.013
			c-0.008,0-0.01-0.005-0.01-0.012v-7.729c0-0.052,0.019-0.094,0.058-0.131c0.039-0.033,0.082-0.052,0.125-0.052h1.558
			c0.122,0,0.184,0.061,0.184,0.183v6.759c0,0.025,0.013,0.056,0.039,0.09l0.184,0.184h1.519l0.184-0.184
			c0.017-0.016,0.027-0.034,0.031-0.052c0.004-0.016,0.012-0.03,0.021-0.038v-6.759c0-0.122,0.061-0.183,0.185-0.183h1.555
			c0.122,0,0.184,0.061,0.184,0.183V192.52L122.892,192.52L122.892,192.52z"/>
		<path fill="#1F273A" d="M138.544,188.409c0,0.043-0.004,0.083-0.013,0.117c-0.019,0.08-0.062,0.154-0.131,0.224l-0.512,0.523
			l0.512,0.512c0.044,0.043,0.073,0.084,0.092,0.123c0.017,0.04,0.03,0.076,0.039,0.113h0.013v2.501
			c0,0.043-0.004,0.082-0.013,0.118c-0.019,0.076-0.062,0.152-0.131,0.22l-0.733,0.735c-0.071,0.07-0.15,0.113-0.238,0.131
			c-0.033,0.01-0.068,0.013-0.104,0.013h-4.165c-0.122,0-0.183-0.063-0.183-0.182v-8.79c0-0.12,0.062-0.183,0.183-0.183h4.165
			c0.036,0,0.071,0.006,0.104,0.014c0.088,0.016,0.167,0.061,0.238,0.132l0.733,0.733c0.069,0.069,0.112,0.147,0.131,0.235
			c0.009,0.035,0.013,0.071,0.013,0.104V188.409z M134.904,186.509v1.691h1.492l0.184-0.184c0.025-0.035,0.04-0.066,0.04-0.092
			v-1.061v-0.026c0-0.01-0.006-0.018-0.014-0.027c-0.008-0.008-0.017-0.021-0.025-0.038l-0.222-0.222
			c-0.018-0.027-0.044-0.041-0.079-0.041H134.904z M134.904,191.813h1.492l0.184-0.183c0.025-0.033,0.04-0.065,0.04-0.092v-1.062
			v-0.025c0-0.009-0.006-0.018-0.014-0.026c-0.008-0.008-0.017-0.021-0.025-0.039l-0.222-0.223
			c-0.027-0.025-0.052-0.039-0.079-0.039h-1.375L134.904,191.813L134.904,191.813z"/>
		<path fill="#1F273A" d="M154.301,191.853c0.041,0.039,0.059,0.08,0.059,0.123v1.56c0,0.052-0.018,0.096-0.059,0.132
			c-0.04,0.033-0.084,0.052-0.138,0.052h-5.238c-0.053,0-0.099-0.018-0.137-0.052c-0.04-0.036-0.06-0.08-0.06-0.132v-8.789h0.013
			c0.019-0.095,0.08-0.143,0.184-0.143h1.545c0.105,0,0.166,0.048,0.184,0.143v7.047h3.508
			C154.217,191.794,154.262,191.813,154.301,191.853z"/>
		<path fill="#1F273A" d="M168.29,184.787v8.749c0,0.122-0.061,0.184-0.183,0.184h-1.558c-0.124,0-0.184-0.062-0.184-0.184v-8.749
			c0-0.121,0.061-0.183,0.184-0.183h1.558C168.229,184.604,168.29,184.666,168.29,184.787z"/>
		<path fill="#1F273A" d="M180.203,185.802c0-0.043,0.005-0.083,0.013-0.119c0.017-0.087,0.057-0.16,0.119-0.221l0.732-0.734
			c0.088-0.078,0.161-0.122,0.223-0.132c0.034-0.009,0.074-0.012,0.117-0.012h3.393c0.043,0,0.083,0.004,0.117,0.012
			c0.062,0.01,0.135,0.053,0.223,0.132l0.734,0.734c0.069,0.069,0.112,0.147,0.129,0.235c0.008,0.035,0.014,0.071,0.014,0.104
			h-0.014l0.014,0.026v1.375c0,0.043-0.02,0.085-0.06,0.124c-0.039,0.04-0.08,0.06-0.123,0.06h-1.56
			c-0.052,0-0.095-0.02-0.131-0.059c-0.035-0.038-0.052-0.08-0.052-0.123v-0.335v-0.025c0-0.009-0.005-0.018-0.012-0.026
			c-0.009-0.01-0.018-0.021-0.027-0.038l-0.221-0.22c-0.025-0.025-0.056-0.038-0.09-0.038h-1.263c-0.026,0-0.057,0.014-0.091,0.038
			l-0.208,0.223c-0.035,0.034-0.053,0.057-0.053,0.064c-0.009,0.01-0.009,0.017,0,0.025v4.654c0.01,0.017,0.016,0.031,0.021,0.044
			c0.004,0.014,0.015,0.029,0.031,0.046l0.183,0.182h1.509l0.181-0.177c0.027-0.025,0.039-0.055,0.039-0.088v-0.382
			c0-0.042,0.018-0.083,0.052-0.12c0.035-0.038,0.079-0.058,0.131-0.058h1.56c0.043,0,0.084,0.021,0.123,0.059
			c0.04,0.039,0.06,0.082,0.06,0.125v1.472c-0.01,0.034-0.017,0.066-0.026,0.091c-0.009,0.027-0.049,0.074-0.117,0.144l-0.735,0.729
			c-0.069,0.07-0.144,0.113-0.222,0.132c-0.035,0.008-0.074,0.012-0.117,0.012h-3.393c-0.043,0-0.083-0.005-0.117-0.012
			c-0.088-0.019-0.162-0.062-0.223-0.133l-0.732-0.734c-0.062-0.061-0.102-0.135-0.119-0.221c-0.008-0.035-0.013-0.074-0.013-0.117
			L180.203,185.802L180.203,185.802z"/>
	</g>
	<g>
		<g>
			<g>
				<g>
					<path fill="#ED2048" d="M79.043,161.743c0.909,3.057,1.811,6.104,2.703,9.143c0.89,3.039,1.792,6.088,2.702,9.146
						c0.037,0.092,0.003,0.177-0.096,0.261c-0.099,0.082-0.204,0.122-0.313,0.122h-3.113c-0.108,0-0.209-0.04-0.299-0.122
						c-0.092-0.083-0.156-0.168-0.191-0.261l-0.656-2.211h-5.486l-0.655,2.211c-0.036,0.092-0.1,0.177-0.191,0.261
						c-0.092,0.082-0.191,0.122-0.3,0.122h-3.111c-0.109,0-0.215-0.04-0.314-0.122c-0.101-0.083-0.132-0.168-0.096-0.261
						l5.405-18.286v-0.029c0.109-0.253,0.237-0.381,0.381-0.381h1.202h0.845h1.201c0.164,0,0.29,0.127,0.382,0.381V161.743
						L79.043,161.743z M78.688,174.134l-1.638-5.596l-1.665,5.596H78.688z"/>
				</g>
			</g>
			<g>
				<g>
					<path fill="#ED2048" d="M99.063,161.714v18.314c0,0.092-0.037,0.177-0.11,0.26c-0.072,0.082-0.164,0.123-0.273,0.123h-4.312
						c-0.109,0-0.21-0.041-0.301-0.123c-0.092-0.083-0.156-0.168-0.191-0.26l-3.33-9.115v9.115c0,0.092-0.041,0.177-0.124,0.26
						c-0.081,0.082-0.167,0.123-0.259,0.123h-3.247c-0.11,0-0.202-0.041-0.274-0.123c-0.073-0.083-0.109-0.168-0.109-0.26v-18.314
						c0-0.253,0.128-0.382,0.384-0.382h4.066c0.199,0,0.328,0.128,0.382,0.382h0.028l3.603,10.536l0.053,0.301v-10.837
						c0-0.11,0.042-0.199,0.124-0.272c0.082-0.073,0.167-0.11,0.26-0.11h3.247C98.935,161.332,99.063,161.46,99.063,161.714z"/>
				</g>
			</g>
			<g>
				<g>
					<path fill="#ED2048" d="M105.285,161.797v18.232c0,0.255-0.128,0.382-0.383,0.382h-3.247c-0.255,0-0.382-0.126-0.382-0.382
						v-18.232c0-0.255,0.127-0.381,0.382-0.381h3.247C105.157,161.415,105.285,161.541,105.285,161.797z"/>
				</g>
			</g>
			<g>
				<g>
					<path fill="#ED2048" d="M123.108,180.002c0,0.255-0.126,0.382-0.381,0.382h-3.221c-0.11,0-0.205-0.035-0.287-0.108
						c-0.082-0.072-0.123-0.165-0.123-0.274l-0.108-6.905l-2.102,6.96c-0.037,0.092-0.102,0.177-0.192,0.259
						c-0.091,0.082-0.191,0.122-0.3,0.122h-2.183c-0.11,0-0.211-0.04-0.302-0.122c-0.091-0.083-0.164-0.167-0.219-0.259l-2.074-6.96
						l-0.136,6.905c0,0.255-0.129,0.382-0.383,0.382h-3.248c-0.092,0-0.178-0.035-0.26-0.108c-0.081-0.072-0.122-0.165-0.122-0.274
						l0.737-18.231v-0.082c0.018-0.11,0.072-0.192,0.163-0.245c0.018,0,0.036-0.011,0.054-0.029c0.037,0,0.063-0.008,0.083-0.027
						h3.466c0.182,0,0.318,0.119,0.409,0.354l2.457,10.536l0.3,2.292l0.219-2.292l2.866-10.536c0.054-0.236,0.191-0.354,0.41-0.354
						h3.464c0.02,0.019,0.046,0.027,0.083,0.027c0,0.019,0.008,0.029,0.026,0.029c0.073,0.053,0.128,0.135,0.165,0.245v0.054
						l0.027,0.028L123.108,180.002z"/>
				</g>
			</g>
			<g>
				<g>
					<path fill="#ED2048" d="M134.722,161.743c0.911,3.057,1.811,6.104,2.703,9.143c0.892,3.039,1.792,6.088,2.703,9.146
						c0.035,0.092,0.004,0.177-0.096,0.261c-0.101,0.082-0.205,0.122-0.315,0.122h-3.11c-0.11,0-0.21-0.04-0.302-0.122
						c-0.09-0.083-0.154-0.168-0.19-0.261l-0.656-2.211h-5.486l-0.655,2.211c-0.037,0.092-0.101,0.177-0.191,0.261
						c-0.092,0.082-0.191,0.122-0.301,0.122h-3.111c-0.109,0-0.214-0.04-0.313-0.122c-0.101-0.083-0.132-0.168-0.095-0.261
						l5.402-18.286v-0.029c0.11-0.253,0.238-0.381,0.383-0.381h1.202h0.846h1.201c0.164,0,0.292,0.127,0.381,0.381V161.743
						L134.722,161.743z M134.367,174.134l-1.638-5.596l-1.663,5.596H134.367z"/>
				</g>
			</g>
			<g>
				<g>
					<path fill="#ED2048" d="M150.33,161.482c0.081,0.083,0.123,0.178,0.123,0.288v3.221c0,0.109-0.042,0.2-0.123,0.274
						c-0.082,0.07-0.178,0.107-0.286,0.107h-3.466v14.684c-0.038,0.219-0.166,0.328-0.386,0.328h-3.244
						c-0.219,0-0.347-0.109-0.384-0.328v-14.684h-3.467c-0.109,0-0.205-0.037-0.287-0.107c-0.081-0.075-0.123-0.166-0.123-0.274
						v-3.221c0-0.109,0.042-0.205,0.123-0.288c0.082-0.082,0.178-0.123,0.287-0.123h10.946
						C150.152,161.359,150.248,161.4,150.33,161.482z"/>
				</g>
			</g>
			<g>
				<g>
					<path fill="#ED2048" d="M157.009,161.797v18.232c0,0.255-0.127,0.382-0.381,0.382h-3.248c-0.256,0-0.383-0.126-0.383-0.382
						v-18.232c0-0.255,0.127-0.381,0.383-0.381h3.248C156.882,161.415,157.009,161.541,157.009,161.797z"/>
				</g>
			</g>
			<g>
				<g>
					<path fill="#ED2048" d="M171.328,177.872c0,0.092-0.009,0.174-0.027,0.247c-0.019,0.072-0.041,0.146-0.069,0.219
						c-0.027,0.073-0.086,0.155-0.177,0.245l-1.557,1.529c-0.146,0.145-0.3,0.238-0.463,0.273c-0.073,0.018-0.146,0.027-0.22,0.027
						h-7.067c-0.092,0-0.174-0.01-0.247-0.027c-0.163-0.035-0.318-0.128-0.463-0.273l-1.53-1.529
						c-0.146-0.145-0.237-0.301-0.272-0.464c-0.019-0.072-0.027-0.154-0.027-0.247v-14.001c0-0.073,0.009-0.146,0.027-0.218
						c0.035-0.183,0.126-0.345,0.272-0.492l1.53-1.528c0.146-0.146,0.3-0.237,0.463-0.274c0.073-0.017,0.155-0.026,0.247-0.026
						h7.041c0.073,0,0.146,0.01,0.219,0.026c0.182,0.037,0.344,0.128,0.49,0.274l1.557,1.528c0.09,0.092,0.15,0.177,0.177,0.259
						c0.028,0.083,0.05,0.16,0.069,0.234c0.018,0.072,0.027,0.146,0.027,0.218V177.872z M163.932,165.344
						c-0.073,0-0.128,0.029-0.165,0.083l-0.463,0.435c-0.054,0.055-0.082,0.109-0.082,0.163v0.056v9.719
						c0,0.054,0.028,0.118,0.082,0.191l0.381,0.38h3.167l0.381-0.38c0.054-0.055,0.081-0.118,0.081-0.191v-9.719v-0.056
						c0-0.054-0.027-0.108-0.081-0.163l-0.437-0.435c-0.055-0.054-0.12-0.083-0.191-0.083H163.932z"/>
				</g>
			</g>
			<g>
				<g>
					<path fill="#ED2048" d="M186.039,161.714v18.314c0,0.092-0.037,0.177-0.109,0.26c-0.073,0.082-0.163,0.123-0.272,0.123h-4.312
						c-0.111,0-0.21-0.041-0.302-0.123c-0.09-0.083-0.156-0.168-0.19-0.26l-3.33-9.115v9.115c0,0.092-0.042,0.177-0.124,0.26
						c-0.082,0.082-0.168,0.123-0.26,0.123h-3.248c-0.109,0-0.201-0.041-0.272-0.123c-0.073-0.083-0.109-0.168-0.109-0.26v-18.314
						c0-0.253,0.126-0.382,0.381-0.382h4.067c0.198,0,0.327,0.128,0.382,0.382h0.028l3.603,10.536l0.053,0.301v-10.837
						c0-0.11,0.041-0.199,0.124-0.272c0.082-0.073,0.167-0.11,0.258-0.11h3.25C185.912,161.332,186.039,161.46,186.039,161.714z"/>
				</g>
			</g>
		</g>
	</g>
	<g>
		<g>
			<path fill="#3E4870" d="M185.93,154.458v-1.971H69.612v1.971h1.479v2.465h-1.479v1.971H185.93v-1.971h-1.479v-2.465H185.93z
				 M76.512,156.923h-3.45v-2.465h3.45V156.923z M82.426,156.923h-3.943v-2.465h3.943V156.923z M88.342,156.923h-3.943v-2.465h3.943
				V156.923z M94.256,156.923h-3.943v-2.465h3.943V156.923z M100.17,156.923h-3.943v-2.465h3.943V156.923z M106.085,156.923h-3.943
				v-2.465h3.943V156.923z M111.999,156.923h-3.943v-2.465h3.943V156.923z M117.914,156.923h-3.943v-2.465h3.943V156.923z
				 M123.828,156.923h-3.943v-2.465h3.943V156.923z M129.743,156.923H125.8v-2.465h3.943V156.923z M135.656,156.923h-3.942v-2.465
				h3.942V156.923z M141.572,156.923h-3.943v-2.465h3.943V156.923z M147.486,156.923h-3.943v-2.465h3.943V156.923z M153.401,156.923
				h-3.943v-2.465h3.943V156.923z M159.316,156.923h-3.943v-2.465h3.943V156.923z M165.229,156.923h-3.943v-2.465h3.943V156.923z
				 M171.144,156.923h-3.943v-2.465h3.943V156.923z M177.059,156.923h-3.943v-2.465h3.943V156.923z M182.48,156.923h-3.451v-2.465
				h3.451V156.923z"/>
		</g>
	</g>
	<g>
		<g>
			<path fill="#3E4870" d="M185.93,198.24v-1.971H69.612v1.971h1.479v2.465h-1.479v1.972H185.93v-1.972h-1.479v-2.465H185.93z
				 M76.512,200.705h-3.45v-2.465h3.45V200.705z M82.426,200.705h-3.943v-2.465h3.943V200.705z M88.342,200.705h-3.943v-2.465h3.943
				V200.705z M94.256,200.705h-3.943v-2.465h3.943V200.705z M100.17,200.705h-3.943v-2.465h3.943V200.705z M106.085,200.705h-3.943
				v-2.465h3.943V200.705z M111.999,200.705h-3.943v-2.465h3.943V200.705z M117.914,200.705h-3.943v-2.465h3.943V200.705z
				 M123.828,200.705h-3.943v-2.465h3.943V200.705z M129.743,200.705H125.8v-2.465h3.943V200.705z M135.656,200.705h-3.942v-2.465
				h3.942V200.705z M141.572,200.705h-3.943v-2.465h3.943V200.705z M147.486,200.705h-3.943v-2.465h3.943V200.705z M153.401,200.705
				h-3.943v-2.465h3.943V200.705z M159.316,200.705h-3.943v-2.465h3.943V200.705z M165.229,200.705h-3.943v-2.465h3.943V200.705z
				 M171.144,200.705h-3.943v-2.465h3.943V200.705z M177.059,200.705h-3.943v-2.465h3.943V200.705z M182.48,200.705h-3.451v-2.465
				h3.451V200.705z"/>
		</g>
	</g>
</g>
</svg>
