<?xml version="1.0" encoding="utf-8"?>
<!-- Generator: Adobe Illustrator 16.0.0, SVG Export Plug-In . SVG Version: 6.00 Build 0)  -->
<!DOCTYPE svg PUBLIC "-//W3C//DTD SVG 1.1//EN" "http://www.w3.org/Graphics/SVG/1.1/DTD/svg11.dtd">
<svg version="1.1" id="Capa_1" xmlns="http://www.w3.org/2000/svg" xmlns:xlink="http://www.w3.org/1999/xlink" x="0px" y="0px"
	 width="256px" height="256px" viewBox="0 0 256 256" enable-background="new 0 0 256 256" xml:space="preserve">
<g>
	<path fill="#ED2048" d="M128.094,15.028c-62.36,0-113,50.639-113,113.008c0,62.438,50.639,113.076,113,113.076
		c62.444,0,113.083-50.639,113.083-113.076C241.178,65.598,190.539,15.028,128.094,15.028L128.094,15.028z M195.3,97.336
		c-7.59,42.635-49.951,78.856-62.714,87.065c-12.685,8.28-24.361-3.312-28.563-12.072c-4.821-9.935-19.256-64.024-23.051-68.51
		c-3.779-4.483-15.169,4.485-15.169,4.485l-5.513-7.245c0,0,23.104-27.527,40.62-30.977c18.635-3.657,18.566,28.563,23.051,46.5
		c4.347,17.317,7.245,27.184,11.04,27.184c3.795,0,11.038-9.658,18.973-24.424c7.916-14.832-0.346-27.872-15.869-18.627
		C144.315,63.528,202.82,54.629,195.3,97.336L195.3,97.336z M195.3,97.336"/>
</g>
</svg>
