<?xml version="1.0" encoding="utf-8"?>
<!-- Generator: Adobe Illustrator 16.0.0, SVG Export Plug-In . SVG Version: 6.00 Build 0)  -->
<!DOCTYPE svg PUBLIC "-//W3C//DTD SVG 1.1//EN" "http://www.w3.org/Graphics/SVG/1.1/DTD/svg11.dtd">
<svg version="1.1" xmlns="http://www.w3.org/2000/svg" xmlns:xlink="http://www.w3.org/1999/xlink" x="0px" y="0px" width="100px"
	 height="100px" viewBox="0 0 100 100" enable-background="new 0 0 100 100" xml:space="preserve">
<g id="Test">
</g>
<g id="Why_Choose_Us">
	<g>
		<path fill="#EC2B49" d="M45.14,41.302l0.604-0.045c0.44-0.033,0.995,0.244,1.231,0.617l2.956,4.666
			c0.236,0.375,0.759,0.529,1.16,0.344c0,0,5.849-2.986,13.272-5.117c5.013,3.389,9.185,1.508,10.052-1.963
			c1.011-0.088,2.019-0.137,3.013-0.137c3.655,0,6.619,2.963,6.619,6.619s-2.964,6.619-6.619,6.619H47.434
			c-0.442,0-0.874-0.355-0.96-0.789l-1.979-9.963C44.409,41.72,44.7,41.337,45.14,41.302z"/>
		<path fill="#1F273A" d="M71.989,42.946v-5.744c0,0,2.427-0.541,2.427,2.602C74.073,41.175,73.214,42.298,71.989,42.946z"/>
		<g>
			<path fill="#1F273A" d="M83.154,39.755c0,3.568,1.099,6.461,1.484,6.461c0.387,0,1.484-2.893,1.484-6.461
				c0-2.926-0.665-4.051-1.484-4.051S83.154,36.829,83.154,39.755z"/>
			<path fill="#1F273A" d="M86.123,52.677c0-3.568-1.098-6.461-1.484-6.461c-0.386,0-1.484,2.893-1.484,6.461
				c0,2.926,0.665,4.051,1.484,4.051S86.123,55.603,86.123,52.677z"/>
			<circle fill="#1F273A" cx="84.639" cy="46.216" r="1.302"/>
		</g>
		<g>
			<g>
				<path fill="#EC2B49" d="M61.567,51.038c-1.24,5.916,0.051,13.258,2.642,13.258c3.02,0,9.07-6.326,9.07-13.258
					c0-2.85-2.622-3.52-5.856-3.52C64.19,47.519,62.152,48.249,61.567,51.038z"/>
			</g>
		</g>
		<g>
			<g>
				<g>
					<path fill="#EC2B49" d="M45.735,50.505c-0.514,2.447-0.252,4.801,0.818,4.801c1.25,0,4.024-1.934,4.024-4.801
						c0-1.178-1.084-1.455-2.421-1.455C46.819,49.05,45.977,49.353,45.735,50.505z"/>
				</g>
			</g>
		</g>
	</g>
	<g>
		<polygon fill="#1F273A" points="44.216,46.655 13.876,45.655 44.216,44.655 		"/>
	</g>
	<g>
		<polygon fill="#1F273A" points="44.886,50.731 14.546,49.731 44.886,48.731 		"/>
	</g>
	<g>
		<polygon fill="#1F273A" points="44.499,54.808 14.159,53.808 44.499,52.808 		"/>
	</g>
</g>
<g id="Concept_Discovery">
</g>
<g id="Storyboarding">
</g>
</svg>
