<?xml version="1.0" encoding="utf-8"?>
<!-- Generator: Adobe Illustrator 16.0.0, SVG Export Plug-In . SVG Version: 6.00 Build 0)  -->
<!DOCTYPE svg PUBLIC "-//W3C//DTD SVG 1.1//EN" "http://www.w3.org/Graphics/SVG/1.1/DTD/svg11.dtd">
<svg version="1.1" xmlns="http://www.w3.org/2000/svg" xmlns:xlink="http://www.w3.org/1999/xlink" x="0px" y="0px" width="125px"
	 height="125px" viewBox="0 0 125 125" enable-background="new 0 0 125 125" xml:space="preserve">
<g id="Layer_7">
</g>
<g id="Artwork">
	<g>
		<g>
			
				<rect x="60.92" y="106.386" transform="matrix(-0.0893 -0.996 0.996 -0.0893 -36.5221 179.7235)" fill="#1F273A" width="5.972" height="0.346"/>
			
				<rect x="71.044" y="105.516" transform="matrix(-0.0888 -0.996 0.996 -0.0888 -24.627 188.8508)" fill="#1F273A" width="6.048" height="0.348"/>
		</g>
		<g>
			<path fill="#EC2B49" d="M74.139,108.387c0,0-1.023,0.868-4.434,1.173c-3.411,0.304-5.424-0.296-5.424-0.296
				c-1.648,0.147-2.892,1.305-2.779,2.587l0.438,4.856c0.111,1.283,1.539,2.2,3.189,2.053l9.855-0.877
				c1.649-0.148,2.894-1.308,2.778-2.588l-0.433-4.858C77.216,109.156,75.787,108.236,74.139,108.387z"/>
			<path fill="#EC2B49" d="M62.678,90.694c-0.312-0.137-0.558-0.331-0.558-0.331s-6.45-9.906-16.392-23.808
				c-0.086-0.118-0.171-0.237-0.256-0.357c-3.986-5.57-7.315-11.355-9.678-17.105c-2.354-5.731-3.742-11.43-3.865-16.841
				c-0.067-2.894,0.229-5.707,0.935-8.401c0.808-3.073,2.062-5.454,3.496-7.292c-1.169,0.242-7.734,2.209-11.034,16.126
				c-0.013,0.053-0.023,0.106-0.036,0.158c-1.384,5.976-0.884,11.778,0.845,17.109c2.186,6.737,6.334,12.723,11.137,17.357
				c1.105,1.068,2.244,2.064,3.404,2.982C50.891,78.374,60.57,91.666,60.57,91.666S62.06,91.635,62.678,90.694z"/>
			<path fill="#EC2B49" d="M98.788,26.284c-0.021-0.051-0.04-0.1-0.063-0.151c-5.71-13.11-12.522-13.885-13.717-13.916
				c1.737,1.555,3.395,3.675,4.733,6.557c1.172,2.525,1.96,5.243,2.409,8.103c0.836,5.352,0.479,11.201-0.825,17.26
				c-1.305,6.076-3.554,12.36-6.494,18.549c-0.063,0.135-0.126,0.267-0.188,0.398c-7.319,15.442-11.917,26.334-11.917,26.334
				s-0.206,0.232-0.488,0.425c0.775,0.813,2.245,0.585,2.245,0.585s7.976-14.144,15.796-24.564c0.853-1.135,1.686-2.304,2.488-3.503
				c3.858-5.78,6.986-12.256,8.072-19.074C101.719,37.777,101.265,32.048,98.788,26.284z"/>
			<path fill="#EC2B49" d="M51.381,63.341c0.446,0.832,0.895,1.698,1.35,2.591c5.255,10.325,10.834,23.803,10.834,23.803
				s0.145,0.121,0.365,0.265c0.564,0.364,1.621,0.861,1.972-0.224c-0.344-0.32-0.563-0.698-0.563-0.698
				c-1.477-8.527-4.176-15.935-6.879-23.657c-1.96-5.604-3.922-11.376-5.418-17.869c-1.182-5.116-2.075-10.682-2.45-16.965
				c-0.019-0.326-0.039-0.652-0.056-0.982c-0.714-14.11,2.646-19.761,5.849-21.984c-1.499-0.214-5.932-0.478-9.579,3.039
				c-2.208,2.128-4.13,5.641-4.938,11.391c-0.459,3.256-0.608,6.374-0.511,9.361c0.201,6.179,1.459,11.79,3.212,16.898
				C46.487,53.898,49.002,58.884,51.381,63.341z"/>
			<path fill="#EC2B49" d="M70.882,89.379c0.19-0.177,0.313-0.323,0.313-0.323s3.105-14.254,6.45-25.349
				c0.285-0.956,0.577-1.891,0.866-2.788c1.553-4.808,3.144-10.158,4.043-16c0.824-5.338,1.065-11.084,0.171-17.201
				c-0.434-2.957-1.134-5.999-2.161-9.125c-1.815-5.513-4.328-8.63-6.877-10.335c-4.214-2.814-8.529-1.771-9.966-1.292
				c3.545,1.62,7.852,6.586,9.65,20.599c0.041,0.328,0.08,0.654,0.118,0.977c0.743,6.251,0.85,11.887,0.592,17.134
				c-0.323,6.654-1.23,12.682-2.167,18.543c-1.291,8.079-2.638,15.849-2.581,24.501c0,0-0.151,0.414-0.431,0.788
				C69.438,90.514,70.39,89.838,70.882,89.379z"/>
		</g>
		<g>
			<path fill="#1F273A" d="M74.411,110.811c-1.528,1.284-3.27,0.217-3.27,0.217c-1.396,1.497-3.702,0.367-3.702,0.367
				c-1.328,1.452-3.37,0.336-3.37,0.336c-1.219,1-2.544,0.34-2.544,0.34l0.048,0.553c0,0,1.214,0.584,2.382-0.23
				c-0.006,0.038-0.011,0.076-0.011,0.121c-0.524,0.239-0.87,1.188-0.815,1.776c0.059,0.663,0.618,1.15,1.25,1.095
				c0.631-0.054,1.096-0.636,1.037-1.296c-0.052-0.57-0.49-1.41-1.014-1.594c-0.005-0.033-0.013-0.063-0.023-0.094
				c0.557,0.23,1.897,0.629,2.922-0.279c-0.003,0.031-0.006,0.061-0.006,0.092c-0.524,0.239-0.871,1.19-0.817,1.779
				c0.059,0.66,0.616,1.15,1.249,1.094c0.633-0.058,1.097-0.638,1.038-1.298c-0.049-0.568-0.49-1.407-1.014-1.594
				c-0.007-0.056-0.022-0.109-0.038-0.156c0.584,0.229,2.182,0.698,3.313-0.307c-0.01,0.047-0.014,0.096-0.014,0.149
				c-0.523,0.24-0.869,1.191-0.818,1.779c0.06,0.658,0.619,1.15,1.253,1.093c0.631-0.056,1.097-0.636,1.037-1.296
				c-0.053-0.571-0.491-1.41-1.017-1.596c-0.008-0.061-0.021-0.116-0.043-0.168c0.494,0.226,1.712,0.622,2.857-0.201
				c-0.004,0.033-0.009,0.063-0.01,0.098c-0.522,0.24-0.869,1.191-0.815,1.779c0.058,0.66,0.618,1.148,1.252,1.093
				c0.631-0.056,1.097-0.638,1.036-1.296c-0.051-0.57-0.489-1.41-1.013-1.596c-0.003-0.014-0.009-0.027-0.011-0.04
				c0.49,0.279,1.611,0.7,2.709-0.396l-0.05-0.555C75.719,112.065,74.411,110.811,74.411,110.811z"/>
			<path fill="#1F273A" d="M44.567,48.309c-0.083-0.245-0.168-0.493-0.249-0.742l-0.369-1.147c-0.058-0.188-0.113-0.377-0.172-0.566
				L43.443,44.7c-0.184-0.658-0.639-2.476-0.639-2.476c-0.125-0.543-0.245-1.088-0.357-1.641l0.042,0.475l-0.179-1.164
				c-0.149-0.774-0.283-1.559-0.4-2.352l-0.16-1.169c-0.088-0.709-0.162-1.428-0.228-2.15l-0.085-1.175
				c-0.033-0.542-0.063-1.088-0.082-1.639c-0.098-2.987,0.052-6.105,0.511-9.361c0.809-5.75,2.73-9.263,4.938-11.391
				c-1.146-0.105-6.485,0.829-10.444,5.9c-1.435,1.838-2.688,4.219-3.496,7.292c-0.706,2.694-1.002,5.508-0.935,8.401
				c-0.021,1.042,0.131,2.437,0.217,3.218l0.147,1.169c0.112,0.793,0.246,1.592,0.405,2.395l0.247,1.159
				c0.161,0.721,0.344,1.446,0.542,2.171l0.301,1.059c0.047,0.163,0.096,0.33,0.147,0.495l0.367,1.147
				c0.443,1.339,0.94,2.683,1.491,4.028c2.362,5.75,5.691,11.535,9.678,17.105c0.085,0.12,0.17,0.239,0.256,0.357
				c8.957,12.526,15.079,21.803,16.203,23.518c-1.185,0.498-1.866,0.931-1.866,0.931c1.189,1.674,1.809,3.334,2.095,4.283
				l0.213,0.797c0.141-0.063,0.285-0.112,0.43-0.17c0.326,1.591,0.759,4.035,1.122,7.244c-0.374,0.119-0.586,0.195-0.586,0.195
				c-0.878,0.917,0.224,1.618,0.224,1.618c4.864-1.912,10.559-1.263,10.559-1.263c1.008-0.811,0.031-1.441,0.031-1.441
				c-0.264-0.052-0.531-0.087-0.795-0.123c-0.5-3.131-0.634-5.636-0.644-7.345c0.448,0.037,0.715,0.073,0.715,0.073l0.04-0.234
				c0.008,0,0.029,0.002,0.029,0.002c0.24-2.375,1.446-5.058,1.446-5.058c-0.697-0.241-1.379-0.414-2.048-0.56
				c0.881-2.069,5.234-12.201,11.747-25.94c0.063-0.132,0.126-0.264,0.188-0.398c2.94-6.188,5.189-12.473,6.494-18.549
				c1.304-6.059,1.661-11.908,0.825-17.26c-0.449-2.859-1.237-5.577-2.409-8.103c-1.339-2.882-2.996-5.002-4.733-6.557
				c-4.793-4.289-10.212-4.263-11.322-3.959c2.549,1.705,5.062,4.822,6.877,10.335c1.027,3.126,1.728,6.168,2.161,9.125
				c0.895,6.117,0.653,11.863-0.171,17.201c-0.899,5.842-2.49,11.192-4.043,16c-0.289,0.897-0.581,1.832-0.866,2.788
				c-3.061,10.15-5.919,22.935-6.383,25.041c-0.663-0.08-1.303-0.112-1.926-0.12c-0.047-8.616,1.291-16.36,2.578-24.41
				c0.937-5.861,1.844-11.889,2.167-18.543c0.258-5.247,0.151-10.883-0.592-17.134c-0.038-0.322-0.077-0.648-0.118-0.977
				c-1.799-14.013-6.105-18.979-9.65-20.599c-0.748-0.343-1.461-0.535-2.108-0.635c0-0.012,0-0.024,0.001-0.038
				c0,0-0.657-0.134-1.654-0.026c-0.999,0.071-1.621,0.319-1.621,0.319c0.004,0.013,0.004,0.024,0.009,0.037
				c-0.621,0.212-1.288,0.528-1.963,0.996c-3.202,2.224-6.563,7.874-5.849,21.984c0.017,0.33,0.037,0.656,0.056,0.982
				c0.375,6.283,1.269,11.849,2.45,16.965c1.496,6.493,3.458,12.266,5.418,17.869c2.696,7.706,5.389,15.098,6.868,23.601
				c-0.673,0.144-1.298,0.307-1.858,0.487c-0.741-1.776-5.876-14.021-10.738-23.576c-0.455-0.893-0.903-1.759-1.35-2.591
				C49.002,58.884,46.487,53.898,44.567,48.309 M66.026,102.604c-0.686,0.152-1.275,0.309-1.726,0.44
				c-0.368-3.229-0.803-5.685-1.133-7.273c0.676-0.244,1.376-0.434,2.078-0.584C65.534,97.138,65.906,100.059,66.026,102.604z
				 M68.406,102.188c-0.719,0.094-1.385,0.21-1.994,0.335c-0.127-2.528-0.495-5.44-0.785-7.41c0.717-0.136,1.428-0.234,2.117-0.297
				L68.406,102.188z M68.789,102.145l-0.658-7.363c0.73-0.056,1.424-0.078,2.06-0.08c-0.011,2.048,0.087,4.993,0.522,7.315
				C70.052,102.03,69.407,102.077,68.789,102.145z M72.958,102.1c-0.621-0.067-1.239-0.094-1.851-0.094
				c-0.447-2.325-0.543-5.282-0.534-7.303c0.685,0.007,1.284,0.036,1.756,0.067C72.334,96.478,72.467,98.98,72.958,102.1z"/>
		</g>
	</g>
</g>
<g id="Devices">
</g>
<g id="Concept_Discovery">
</g>
<g id="Storyboarding">
</g>
</svg>
