<?xml version="1.0" encoding="utf-8"?>
<!-- Generator: Adobe Illustrator 16.0.0, SVG Export Plug-In . SVG Version: 6.00 Build 0)  -->
<!DOCTYPE svg PUBLIC "-//W3C//DTD SVG 1.1//EN" "http://www.w3.org/Graphics/SVG/1.1/DTD/svg11.dtd">
<svg version="1.1" id="Layer_1" xmlns="http://www.w3.org/2000/svg" xmlns:xlink="http://www.w3.org/1999/xlink" x="0px" y="0px"
	 width="1170px" height="356px" viewBox="0 0 1170 356" enable-background="new 0 0 1170 356" xml:space="preserve">
<rect x="-17.5" y="-5.174" fill="#3E4770" width="1204" height="366.347"/>
<g id="Test">
</g>
<g id="Why_Choose_Us">
	
		<linearGradient id="SVGID_1_" gradientUnits="userSpaceOnUse" x1="208.6216" y1="-770.8804" x2="208.6216" y2="-677.7769" gradientTransform="matrix(1 0 0 -1 4 -519)">
		<stop  offset="0" style="stop-color:#3E4770"/>
		<stop  offset="0.1867" style="stop-color:#3D466E"/>
		<stop  offset="0.397" style="stop-color:#3A4266"/>
		<stop  offset="0.6186" style="stop-color:#333B59"/>
		<stop  offset="0.8468" style="stop-color:#293048"/>
		<stop  offset="1" style="stop-color:#20283B"/>
	</linearGradient>
	<polyline fill="url(#SVGID_1_)" points="341.348,246.883 289.179,188.896 263.916,223.477 211.771,158.777 161.81,218.613 
		133.943,180.471 83.897,251.881 	"/>
	
		<linearGradient id="SVGID_2_" gradientUnits="userSpaceOnUse" x1="978.9824" y1="-770.8804" x2="978.9824" y2="-677.7769" gradientTransform="matrix(1 0 0 -1 4 -519)">
		<stop  offset="0" style="stop-color:#3E4770"/>
		<stop  offset="0.1867" style="stop-color:#3D466E"/>
		<stop  offset="0.397" style="stop-color:#3A4266"/>
		<stop  offset="0.6186" style="stop-color:#333B59"/>
		<stop  offset="0.8468" style="stop-color:#293048"/>
		<stop  offset="1" style="stop-color:#20283B"/>
	</linearGradient>
	<polyline fill="url(#SVGID_2_)" points="1111.707,246.883 1059.538,188.896 1034.275,223.477 982.13,158.777 932.169,218.613 
		904.303,180.471 854.257,251.881 	"/>
	<path fill="#ECF0F1" d="M495.53,141.83c0,4.732-3.836,8.57-8.569,8.57h-44.569c-4.729,0-8.563-3.838-8.563-8.57l0,0
		c0-4.732,3.837-8.568,8.563-8.568h44.569C491.694,133.262,495.53,137.098,495.53,141.83L495.53,141.83z"/>
	<path fill="#ECF0F1" d="M394.417,141.83c0,4.732-3.837,8.57-8.569,8.57H341.28c-4.732,0-8.568-3.838-8.568-8.57l0,0
		c0-4.732,3.836-8.568,8.568-8.568h44.565C390.58,133.262,394.417,137.098,394.417,141.83L394.417,141.83z"/>
	<path fill="#ECF0F1" d="M424.493,141.83c0,5.621-4.556,10.178-10.176,10.178l0,0c-5.62,0-10.181-4.557-10.181-10.178l0,0
		c0-5.619,4.561-10.176,10.181-10.176l0,0C419.938,131.654,424.493,136.211,424.493,141.83L424.493,141.83z"/>
	
		<linearGradient id="SVGID_3_" gradientUnits="userSpaceOnUse" x1="575.4932" y1="-803.5132" x2="575.4932" y2="-590.7607" gradientTransform="matrix(1 0 0 -1 4 -519)">
		<stop  offset="0" style="stop-color:#3E4770"/>
		<stop  offset="0.2222" style="stop-color:#3E466E"/>
		<stop  offset="0.4201" style="stop-color:#3B4368"/>
		<stop  offset="0.6086" style="stop-color:#353D5E"/>
		<stop  offset="0.7915" style="stop-color:#2D3550"/>
		<stop  offset="0.9687" style="stop-color:#232A3E"/>
		<stop  offset="1" style="stop-color:#20283B"/>
	</linearGradient>
	<polyline fill="url(#SVGID_3_)" points="873.646,273.096 754.434,140.588 696.706,219.607 577.546,71.761 463.379,208.496 
		399.701,121.334 285.34,284.514 	"/>
	<g>
		<rect x="907.639" y="247.182" fill="#EC2B49" width="4.504" height="24.967"/>
		<polygon fill="#1F273A" points="894.732,259.664 909.891,201.389 925.049,259.664 		"/>
	</g>
	<g>
		<rect x="1096.756" y="282.596" fill="#EC2B49" width="6.252" height="34.664"/>
		<polygon fill="#1F273A" points="1078.837,299.928 1099.882,219.02 1120.928,299.928 		"/>
	</g>
	<g>
		<rect x="68.802" y="237.943" fill="#EC2B49" width="3.206" height="17.783"/>
		<polygon fill="#1F273A" points="59.608,246.834 70.404,205.328 81.201,246.834 		"/>
	</g>
	<path fill="#ECF0F1" d="M180.421,56.321c0,4.732-3.836,8.57-8.569,8.57h-44.568c-4.732,0-8.568-3.838-8.568-8.57l0,0
		c0-4.732,3.836-8.568,8.568-8.568h44.568C176.585,47.753,180.421,51.589,180.421,56.321L180.421,56.321z"/>
	<path fill="#ECF0F1" d="M109.385,56.321c0,5.621-4.557,10.178-10.176,10.178l0,0c-5.621,0-10.177-4.557-10.177-10.178l0,0
		c0-5.619,4.556-10.176,10.177-10.176l0,0C104.828,46.146,109.385,50.702,109.385,56.321L109.385,56.321z"/>
	<path fill="#ECF0F1" d="M677.889,102.296c0,4.733-3.836,8.569-8.564,8.569h-44.568c-4.729,0-8.566-3.836-8.566-8.569l0,0
		c0-4.732,3.838-8.568,8.566-8.568h44.568C674.053,93.728,677.889,97.563,677.889,102.296L677.889,102.296z"/>
	<path fill="#ECF0F1" d="M606.854,102.296c0,5.622-4.558,10.177-10.177,10.177l0,0c-5.621,0-10.177-4.555-10.177-10.177l0,0
		c0-5.619,4.556-10.176,10.177-10.176l0,0C602.296,92.12,606.854,96.677,606.854,102.296L606.854,102.296z"/>
	<path fill="#ECF0F1" d="M993.338,82.378c0,4.732-3.836,8.568-8.568,8.568H940.2c-4.732,0-8.568-3.836-8.568-8.568l0,0
		c0-4.732,3.836-8.568,8.568-8.568h44.563C989.502,73.81,993.338,77.646,993.338,82.378L993.338,82.378z"/>
	<path fill="#ECF0F1" d="M1064.014,82.378c0,4.732-3.836,8.568-8.564,8.568h-44.568c-4.729,0-8.564-3.836-8.564-8.568l0,0
		c0-4.732,3.837-8.568,8.564-8.568h44.568C1060.178,73.81,1064.014,77.646,1064.014,82.378L1064.014,82.378z"/>
	<path fill="#ECF0F1" d="M922.302,82.378c0,5.619-4.557,10.176-10.176,10.176l0,0c-5.621,0-10.177-4.557-10.177-10.176l0,0
		c0-5.621,4.556-10.176,10.177-10.176l0,0C917.745,72.202,922.302,76.757,922.302,82.378L922.302,82.378z"/>
</g>
<g id="Concept_Discovery">
</g>
<g id="Storyboarding">
</g>
</svg>
