<?xml version="1.0" encoding="utf-8"?>
<!-- Generator: Adobe Illustrator 16.0.0, SVG Export Plug-In . SVG Version: 6.00 Build 0)  -->
<!DOCTYPE svg PUBLIC "-//W3C//DTD SVG 1.1//EN" "http://www.w3.org/Graphics/SVG/1.1/DTD/svg11.dtd">
<svg version="1.1" id="Layer_1" xmlns="http://www.w3.org/2000/svg" xmlns:xlink="http://www.w3.org/1999/xlink" x="0px" y="0px"
	 width="1170px" height="356px" viewBox="0 0 1170 356" enable-background="new 0 0 1170 356" xml:space="preserve">
<g id="Test">
	<path fill="#3E4770" d="M1171.5,356.001H0V0h1171.5V356.001z M743.08,23.562H327.507v232.532H743.08V23.562z M1052.113,126.695
		H803.558v187.784h248.558L1052.113,126.695L1052.113,126.695z M269.222,233.77h-144.19v93.438h144.189L269.222,233.77
		L269.222,233.77z"/>
	<g>
		<path fill="#3E4770" stroke="#FFFFFF" stroke-miterlimit="10" d="M760.451,310.031c0,6.059-4.91,10.969-10.968,10.969H321.103
			c-6.059,0-10.968-4.91-10.968-10.969v-36.563H760.45L760.451,310.031L760.451,310.031z"/>
		<path fill="#3E4770" stroke="#FFFFFF" stroke-miterlimit="10" d="M614.448,337.91h-5.2c0,0-15.09,0.461-20.092,0
			c-8.671-0.801-16.612-5.992-16.612-16.91h-67.923c0,10.918-8.284,16.109-17.313,16.91c-5.214,0.461-20.938,0-20.938,0h-10.235
			c-2.171,0-3.931,1.76-3.931,3.93v3.932c0,2.17,1.76,3.932,3.931,3.932h158.313c2.172,0,3.931-1.762,3.931-3.932v-3.932
			C618.379,339.67,616.62,337.91,614.448,337.91z"/>
		<path fill="#3E4770" stroke="#FFFFFF" stroke-miterlimit="10" d="M310.136,273.469V17.163c0-6.059,4.909-10.969,10.968-10.969
			h428.382c6.058,0,10.968,4.91,10.968,10.969v256.306H310.136z M743.08,23.562H327.507v232.532H743.08V23.562z"/>
		<circle fill="#FFFFFF" cx="535.293" cy="15.55" r="1.612"/>
	</g>
	<g>
		<path fill="#3E4770" stroke="#FFFFFF" stroke-miterlimit="10" d="M785.404,331.84c-5.228,0-9.467-4.24-9.467-9.467v-203.57
			c0-5.229,4.239-9.467,9.467-9.467h276.971c5.229,0,9.469,4.238,9.469,9.467v203.57c0,5.227-4.238,9.467-9.469,9.467H785.404z
			 M1052.113,314.479V126.695H803.558v187.784H1052.113L1052.113,314.479z"/>
		<circle fill="#FFFFFF" cx="1061.189" cy="220.587" r="1.972"/>
		<g>
			<circle fill="none" stroke="#FFFFFF" stroke-miterlimit="10" cx="789.741" cy="220.588" r="7.035"/>
			<path fill="none" stroke="#FFFFFF" stroke-miterlimit="10" d="M787.964,223.787c-0.786,0-1.423-0.637-1.423-1.42v-3.559
				c0-0.785,0.637-1.424,1.423-1.424h3.558c0.783,0,1.426,0.639,1.426,1.424v3.559c0,0.783-0.643,1.42-1.426,1.42H787.964z"/>
		</g>
		<rect x="803.558" y="126.695" fill="none" width="248.558" height="187.784"/>
	</g>
	<g>
		<path fill="#FFFFFF" d="M103.22,315.537c0.939,0,1.697-0.76,1.697-1.699v-8.953c0-0.938-0.758-1.699-1.697-1.699l0,0
			c-0.936,0-1.697,0.762-1.697,1.699v8.953C101.522,314.777,102.284,315.537,103.22,315.537L103.22,315.537z"/>
		<path fill="#FFFFFF" d="M130.899,229.139c0-0.938-0.762-1.697-1.697-1.697h-5.559c-0.938,0-1.697,0.762-1.697,1.697l0,0
			c0,0.939,0.76,1.699,1.697,1.699h5.559C130.138,230.838,130.899,230.078,130.899,229.139L130.899,229.139z"/>
		<path fill="#FFFFFF" d="M142.013,229.139c0-0.938-0.758-1.697-1.697-1.697h-4.32c-0.939,0-1.699,0.762-1.699,1.697l0,0
			c0,0.939,0.76,1.699,1.699,1.699h4.32C141.255,230.838,142.013,230.078,142.013,229.139L142.013,229.139z"/>
		<path fill="#FFFFFF" d="M150.968,229.139c0-0.938-0.76-1.697-1.701-1.697h-4.32c-0.938,0-1.699,0.762-1.699,1.697l0,0
			c0,0.939,0.762,1.699,1.699,1.699h4.32C150.208,230.838,150.968,230.078,150.968,229.139L150.968,229.139z"/>
		<g>
			<circle fill="none" stroke="#FFFFFF" stroke-miterlimit="10" cx="280.958" cy="280.488" r="7.178"/>
			<path fill="none" stroke="#FFFFFF" stroke-miterlimit="10" d="M282.772,283.754c0.801,0,1.451-0.65,1.451-1.451v-3.629
				c0-0.801-0.65-1.451-1.451-1.451h-3.629c-0.801,0-1.451,0.65-1.451,1.451v3.629c0,0.801,0.65,1.451,1.451,1.451H282.772z"/>
		</g>
		<rect x="125.032" y="233.77" fill="none" width="144.189" height="93.438"/>
		<path fill="#FFFFFF" d="M116.31,289.75c0.512,0,0.928-0.414,0.928-0.926v-16.672c0-0.51-0.416-0.926-0.928-0.926l0,0
			c-0.512,0-0.926,0.416-0.926,0.926v16.672C115.384,289.336,115.798,289.75,116.31,289.75L116.31,289.75z"/>
		<path fill="#FFFFFF" d="M112.296,286.348c0.514,0,0.926-0.414,0.926-0.926v-9.867c0-0.512-0.412-0.926-0.926-0.926l0,0
			c-0.51,0-0.926,0.414-0.926,0.926v9.867C111.37,285.934,111.786,286.348,112.296,286.348L112.296,286.348z"/>
		<circle fill="#FFFFFF" cx="116.31" cy="266.14" r="1.698"/>
		<path fill="#3E4770" stroke="#FFFFFF" stroke-miterlimit="10" d="M113.085,331.84c-5.447,0-9.865-4.42-9.865-9.865v-82.971
			c0-5.447,4.418-9.865,9.865-9.865h170.947c5.447,0,9.865,4.418,9.865,9.865v82.971c0,5.445-4.418,9.865-9.865,9.865H113.085z
			 M269.222,327.207V233.77h-144.19v93.438L269.222,327.207L269.222,327.207z"/>
	</g>
</g>
<g id="Why_Choose_Us">
</g>
<g id="Concept_Discovery">
</g>
<g id="Storyboarding">
</g>
</svg>
