<?xml version="1.0" encoding="utf-8"?>
<!-- Generator: Adobe Illustrator 16.0.0, SVG Export Plug-In . SVG Version: 6.00 Build 0)  -->
<!DOCTYPE svg PUBLIC "-//W3C//DTD SVG 1.1//EN" "http://www.w3.org/Graphics/SVG/1.1/DTD/svg11.dtd">
<svg version="1.1" xmlns="http://www.w3.org/2000/svg" xmlns:xlink="http://www.w3.org/1999/xlink" x="0px" y="0px" width="100px"
	 height="100px" viewBox="0 0 100 100" enable-background="new 0 0 100 100" xml:space="preserve">
<g id="Test">
</g>
<g id="Why_Choose_Us">
	<g>
		<g>
			<path fill="#EC2B49" d="M23.994,48.281c-8.977,0-11.532,17.201,0.336,17.201c0.795,0-2.688,0.059,1.064,0.059
				c0.137-4.928,4.185-8.895,9.145-8.895c4.959,0,9.007,3.967,9.145,8.895c5.008,0,10.33,0,15.405,0
				c0.138-4.957,4.209-8.945,9.196-8.945c4.98,0,9.047,3.975,9.197,8.918c9.4,0,8.88-8.863,4.27-17.463
				C81.752,48.051,24.418,48.281,23.994,48.281z M54.316,54.197h-3.293c-0.43,0-0.775-0.348-0.775-0.777
				c0-0.428,0.346-0.775,0.775-0.775h3.293c0.429,0,0.775,0.348,0.775,0.775C55.092,53.85,54.745,54.197,54.316,54.197z"/>
			<g>
				<path fill="#FFFFFF" d="M34.192,57.932c-4.28,0-7.751,3.471-7.751,7.752c0,4.279,3.471,7.75,7.751,7.75
					c4.281,0,7.751-3.471,7.751-7.75C41.943,61.402,38.474,57.932,34.192,57.932z M34.192,68.844c-1.745,0-3.159-1.416-3.159-3.16
					c0-1.746,1.414-3.16,3.159-3.16s3.16,1.414,3.16,3.16C37.353,67.428,35.938,68.844,34.192,68.844z"/>
				<path fill="#1F273A" d="M42.722,64.83c-0.525,0-1.007-0.352-1.149-0.885c-0.936-3.477-4.029-5.908-7.524-5.908
					c-3.435,0-6.166,2.277-7.188,5.666c-0.191,0.631-1.121,0.988-1.751,0.797c-0.63-0.189-0.987-0.855-0.796-1.484
					c1.329-4.402,5.242-7.361,9.735-7.361c4.571,0,8.611,3.156,9.826,7.674c0.17,0.635-0.206,1.289-0.842,1.459
					C42.929,64.814,42.824,64.83,42.722,64.83z"/>
			</g>
			<g>
				<path fill="#FFFFFF" d="M68.255,57.932c-4.282,0-7.751,3.471-7.751,7.752c0,4.279,3.469,7.75,7.751,7.75
					c4.279,0,7.751-3.471,7.751-7.75C76.006,61.402,72.534,57.932,68.255,57.932z M68.255,68.844c-1.747,0-3.161-1.416-3.161-3.16
					c0-1.746,1.414-3.16,3.161-3.16c1.745,0,3.159,1.414,3.159,3.16C71.414,67.428,70,68.844,68.255,68.844z"/>
				<path fill="#1F273A" d="M76.783,64.83c-0.525,0-1.008-0.352-1.15-0.885c-0.935-3.479-4.028-5.908-7.523-5.908
					c-3.435,0-6.166,2.277-7.189,5.666c-0.189,0.631-1.12,0.988-1.75,0.797c-0.631-0.189-0.987-0.855-0.797-1.484
					c1.33-4.402,5.242-7.361,9.736-7.361c4.571,0,8.611,3.156,9.826,7.674c0.17,0.635-0.206,1.289-0.842,1.459
					C76.99,64.814,76.886,64.83,76.783,64.83z"/>
			</g>
			<path fill="#EF3C40" d="M33.339,48.254c-0.007,0-0.013,0-0.019,0H33.339L33.339,48.254z"/>
			<path fill="#FFFFFF" d="M54.316,54.197h-3.293c-0.43,0-0.775-0.348-0.775-0.777c0-0.428,0.346-0.775,0.775-0.775h3.293
				c0.429,0,0.775,0.348,0.775,0.775C55.092,53.85,54.745,54.197,54.316,54.197z"/>
		</g>
		<path fill="#EC2B49" d="M76.217,40.123c-5.123-5.773-11.708-9.268-19.215-9.957c-7.589-0.697-14.747,2.225-20.7,8.453
			c-3.999,4.184-6.17,8.496-6.713,9.635h3.731c0.688-1.25,1.919-3.287,3.686-5.459c0.009-0.01,0.018-0.021,0.026-0.033
			c0.128-0.156,0.258-0.313,0.392-0.473c0.057-0.064,0.115-0.133,0.172-0.199c0.092-0.107,0.184-0.213,0.277-0.322
			c0.094-0.105,0.19-0.211,0.286-0.318c0.063-0.068,0.124-0.139,0.188-0.209c0.164-0.178,0.329-0.355,0.5-0.531
			c4.688-4.877,9.753-7.189,15.477-7.293v14.838h3.926V33.65c6.172,0.85,11.258,3.547,15.538,8.434
			c1.975,2.254,3.333,4.533,4.11,6.029l3.879-0.016C80.292,45.326,78.357,42.535,76.217,40.123z"/>
	</g>
</g>
<g id="Concept_Discovery">
</g>
<g id="Storyboarding">
</g>
</svg>
